<?xml version="1.0" encoding="UTF-8"?>
<svg width="72px" height="26px" viewBox="0 0 72 26" version="1.1" xmlns="http://www.w3.org/2000/svg" xmlns:xlink="http://www.w3.org/1999/xlink">
    <!-- Generator: Sketch 52.2 (67145) - http://www.bohemiancoding.com/sketch -->
    <title>Group 3</title>
    <desc>Created with Sketch.</desc>
    <defs>
        <polygon id="path-1" points="0 0.0001 71.402 0.0001 71.402 25.805 0 25.805"></polygon>
    </defs>
    <g id="Page-1" stroke="none" stroke-width="1" fill="none" fill-rule="evenodd">
        <g id="Group-3">
            <mask id="mask-2" fill="white">
                <use xlink:href="#path-1"></use>
            </mask>
            <g id="Clip-2"></g>
            <path d="M63.263,15.047 L60.855,8.051 C60.68,7.582 60.433,6.844 60.117,5.836 C59.812,4.828 59.601,4.09 59.484,3.621 C59.168,5.063 58.705,6.639 58.096,8.35 L55.775,15.047 L63.263,15.047 Z M66.937,25.805 L64.371,18.668 L54.545,18.668 L52.031,25.805 L47.601,25.805 L57.217,-3.55271368e-15 L61.787,-3.55271368e-15 L71.402,25.805 L66.937,25.805 Z M39.463,15.047 L37.055,8.051 C36.879,7.582 36.633,6.844 36.316,5.836 C36.012,4.828 35.801,4.09 35.683,3.621 C35.367,5.063 34.904,6.639 34.295,8.35 L31.974,15.047 L39.463,15.047 Z M43.137,25.805 L40.57,18.668 L30.744,18.668 L28.23,25.805 L23.801,25.805 L33.416,-3.55271368e-15 L37.986,-3.55271368e-15 L47.601,25.805 L43.137,25.805 Z M15.662,15.047 L13.254,8.051 C13.078,7.582 12.832,6.844 12.515,5.836 C12.211,4.828 12,4.09 11.883,3.621 C11.566,5.063 11.103,6.639 10.494,8.35 L8.174,15.047 L15.662,15.047 Z M19.336,25.805 L16.769,18.668 L6.943,18.668 L4.43,25.805 L0,25.805 L9.615,-3.55271368e-15 L14.185,-3.55271368e-15 L23.801,25.805 L19.336,25.805 Z" id="Fill-1" fill="#03A5E3" mask="url(#mask-2)"></path>
        </g>
    </g>
</svg>