<?xml version="1.0" encoding="utf-8"?>
<!-- Generator: Adobe Illustrator 23.1.1, SVG Export Plug-In . SVG Version: 6.00 Build 0)  -->
<svg version="1.1" id="Слой_1" xmlns="http://www.w3.org/2000/svg" xmlns:xlink="http://www.w3.org/1999/xlink" x="0px" y="0px"
	 viewBox="0 0 835 812.2" style="enable-background:new 0 0 835 812.2;" xml:space="preserve">
<style type="text/css">
	.st0{clip-path:url(#SVGID_2_);}
	.st1{clip-path:url(#SVGID_6_);}
</style>
<g>
	<defs>
		
			<rect id="SVGID_1_" x="263.3" y="18.3" transform="matrix(0.9976 -6.975600e-02 6.975600e-02 0.9976 -23.9277 38.3743)" width="548.4" height="687"/>
	</defs>
	<clipPath id="SVGID_2_">
		<use xlink:href="#SVGID_1_"  style="overflow:visible;"/>
	</clipPath>
	<g class="st0">
		<defs>
			
				<rect id="SVGID_3_" x="263.3" y="18.3" transform="matrix(0.9976 -6.975602e-02 6.975602e-02 0.9976 -23.9277 38.3743)" width="548.4" height="687"/>
		</defs>
		<clipPath id="SVGID_4_">
			<use xlink:href="#SVGID_3_"  style="overflow:visible;"/>
		</clipPath>
		<g transform="matrix(1 7.450581e-09 7.450581e-09 1 0 0)" style="clip-path:url(#SVGID_4_);">
			
				<image style="overflow:visible;" width="1994" height="2498" xlink:href="C31F070524FC1B15.png"  transform="matrix(0.2744 -1.918430e-02 1.918429e-02 0.2744 240 38.2535)">
			</image>
		</g>
	</g>
</g>
<g>
	<defs>
		
			<rect id="SVGID_5_" x="-40.4" y="171.9" transform="matrix(8.715599e-02 -0.9962 0.9962 8.715599e-02 -167.7196 709.1475)" width="687" height="548.4"/>
	</defs>
	<clipPath id="SVGID_6_">
		<use xlink:href="#SVGID_5_"  style="overflow:visible;"/>
	</clipPath>
	<g class="st1">
		<defs>
			
				<rect id="SVGID_7_" x="-40.4" y="171.9" transform="matrix(8.715596e-02 -0.9962 0.9962 8.715596e-02 -167.7195 709.1476)" width="687" height="548.4"/>
		</defs>
		<clipPath id="SVGID_8_">
			<use xlink:href="#SVGID_7_"  style="overflow:visible;"/>
		</clipPath>
		<g transform="matrix(1 0 0 1 -3.814697e-06 0)" style="clip-path:url(#SVGID_8_);">
			
				<image style="overflow:visible;" width="1994" height="2498" xlink:href="C31F070524FC1B17.png"  transform="matrix(0.274 2.396964e-02 -2.396964e-02 0.274 59.8762 80)">
			</image>
		</g>
	</g>
</g>
</svg>
