<svg width="54" height="49" viewBox="0 0 54 49" fill="none" xmlns="http://www.w3.org/2000/svg">
<mask id="path-1-outside-1" maskUnits="userSpaceOnUse" x="13.5571" y="0.052124" width="28" height="49" fill="black">
<rect fill="white" x="13.5571" y="0.052124" width="28" height="49"/>
<path fill-rule="evenodd" clip-rule="evenodd" d="M37.6927 2.05212H17.0165C16.2102 2.05212 15.5571 2.87494 15.5571 3.89018V44.4755C15.5571 45.4907 16.2107 46.3135 17.0165 46.3135H37.6927C38.499 46.3135 39.1521 45.4907 39.1521 44.4755V3.89018C39.1521 2.87494 38.499 2.05212 37.6927 2.05212ZM27.3551 43.9147C26.2512 43.9147 25.3561 43.0197 25.3561 41.9157C25.3561 40.8117 26.2512 39.9167 27.3551 39.9167C28.4591 39.9167 29.3542 40.8117 29.3542 41.9157C29.3542 43.0197 28.4591 43.9147 27.3551 43.9147ZM17.618 37.7242H37.0922V5.61113H17.618V37.7242Z"/>
</mask>
<path d="M37.0922 37.7242V39.7242H39.0922V37.7242H37.0922ZM17.618 37.7242H15.618V39.7242H17.618V37.7242ZM37.0922 5.61113H39.0922V3.61113H37.0922V5.61113ZM17.618 5.61113V3.61113H15.618V5.61113H17.618ZM17.0165 4.05212H37.6927V0.052124H17.0165V4.05212ZM17.5571 3.89018C17.5571 3.8008 17.5876 3.78767 17.5508 3.834C17.5112 3.88393 17.3357 4.05212 17.0165 4.05212V0.052124C14.6999 0.052124 13.5571 2.22543 13.5571 3.89018H17.5571ZM17.5571 44.4755V3.89018H13.5571V44.4755H17.5571ZM17.0165 44.3135C17.3362 44.3135 17.5116 44.4819 17.5509 44.5314C17.5875 44.5776 17.5571 44.5644 17.5571 44.4755H13.5571C13.5571 46.1407 14.7008 48.3135 17.0165 48.3135V44.3135ZM37.6927 44.3135H17.0165V48.3135H37.6927V44.3135ZM37.1521 44.4755C37.1521 44.5648 37.1216 44.578 37.1584 44.5316C37.198 44.4817 37.3735 44.3135 37.6927 44.3135V48.3135C40.0094 48.3135 41.1521 46.1402 41.1521 44.4755H37.1521ZM37.1521 3.89018V44.4755H41.1521V3.89018H37.1521ZM37.6927 4.05212C37.3735 4.05212 37.198 3.88393 37.1584 3.834C37.1216 3.78767 37.1521 3.8008 37.1521 3.89018H41.1521C41.1521 2.22543 40.0094 0.052124 37.6927 0.052124V4.05212ZM23.3561 41.9157C23.3561 44.1242 25.1466 45.9147 27.3551 45.9147V41.9147C27.3526 41.9147 27.3522 41.9145 27.3533 41.9147C27.3542 41.9149 27.3553 41.9152 27.3562 41.9156C27.3578 41.9163 27.3572 41.9164 27.3559 41.915C27.3545 41.9136 27.3546 41.9131 27.3552 41.9146C27.3556 41.9155 27.3559 41.9166 27.3561 41.9176C27.3564 41.9186 27.3561 41.9182 27.3561 41.9157H23.3561ZM27.3551 37.9167C25.1466 37.9167 23.3561 39.7072 23.3561 41.9157H27.3561C27.3561 41.9132 27.3564 41.9128 27.3561 41.9138C27.3559 41.9148 27.3556 41.9158 27.3552 41.9168C27.3546 41.9183 27.3545 41.9178 27.3559 41.9164C27.3572 41.915 27.3578 41.9151 27.3562 41.9158C27.3553 41.9162 27.3542 41.9165 27.3533 41.9167C27.3522 41.9169 27.3526 41.9167 27.3551 41.9167V37.9167ZM31.3542 41.9157C31.3542 39.7072 29.5637 37.9167 27.3551 37.9167V41.9167C27.3577 41.9167 27.3581 41.9169 27.357 41.9167C27.3561 41.9165 27.355 41.9162 27.3541 41.9158C27.3525 41.9151 27.353 41.915 27.3544 41.9164C27.3558 41.9178 27.3557 41.9183 27.3551 41.9168C27.3547 41.9158 27.3543 41.9148 27.3541 41.9138C27.3539 41.9128 27.3542 41.9132 27.3542 41.9157H31.3542ZM27.3551 45.9147C29.5637 45.9147 31.3542 44.1242 31.3542 41.9157H27.3542C27.3542 41.9182 27.3539 41.9186 27.3541 41.9176C27.3543 41.9166 27.3547 41.9155 27.3551 41.9146C27.3557 41.9131 27.3558 41.9136 27.3544 41.915C27.353 41.9164 27.3525 41.9163 27.3541 41.9156C27.355 41.9152 27.3561 41.9149 27.357 41.9147C27.3581 41.9145 27.3577 41.9147 27.3551 41.9147V45.9147ZM37.0922 35.7242H17.618V39.7242H37.0922V35.7242ZM35.0922 5.61113V37.7242H39.0922V5.61113H35.0922ZM17.618 7.61113H37.0922V3.61113H17.618V7.61113ZM19.618 37.7242V5.61113H15.618V37.7242H19.618Z" fill="#00A6E4" mask="url(#path-1-outside-1)"/>
<path d="M9.10764 29.2469C7.86335 27.6471 7.12256 25.6363 7.12256 23.4526C7.12256 21.2874 7.85097 19.2921 9.07669 17.699" stroke="#00A6E4" stroke-width="2" stroke-linecap="round"/>
<path d="M5.31795 34.9214C2.85104 31.7493 1.38184 27.7627 1.38184 23.4329C1.38184 19.1393 2.82628 15.1836 5.25604 12.0244" stroke="#00A6E4" stroke-width="2" stroke-linecap="round"/>
<path d="M45.0796 17.699C46.3239 19.2988 47.0647 21.3096 47.0647 23.4933C47.0647 25.6584 46.3363 27.6538 45.1105 29.2469" stroke="#00A6E4" stroke-width="2" stroke-linecap="round"/>
<path d="M48.8696 12.0244C51.3365 15.1965 52.8063 19.1832 52.8063 23.5134C52.8063 27.807 51.3618 31.7627 48.932 34.922" stroke="#00A6E4" stroke-width="2" stroke-linecap="round"/>
<path fill-rule="evenodd" clip-rule="evenodd" d="M25.9301 11.0804L26.3453 25.3288H28.3634L28.7792 11.0804H25.9301ZM27.3549 27.7333C26.3453 27.7333 25.6035 28.505 25.6035 29.5734C25.6035 30.6124 26.3159 31.414 27.3549 31.4135C28.4238 31.4135 29.1063 30.6124 29.1063 29.5734C29.1063 28.505 28.4233 27.7333 27.3549 27.7333Z" fill="#00A6E4"/>
</svg>
