<svg width="46" height="43" viewBox="0 0 46 43" fill="none" xmlns="http://www.w3.org/2000/svg">
<path d="M17 15.3287V24.6707C17 26.4431 19 26.4431 19 24.6707V15.3287C19.0005 13.5571 17 13.5571 17 15.3287Z" fill="#00A6E4"/>
<path d="M17.5774 25.9919L23.0073 31.4217C24.1019 32.5163 25.5161 31.1021 24.4215 30.0075L18.9917 24.5777C17.8983 23.4836 16.4838 24.8982 17.5774 25.9919Z" fill="#00A6E4"/>
<path d="M34.4797 17.2256C35.4211 19.335 35.9631 21.6463 35.9997 24.0396C35.8565 33.4199 28.3705 40.9089 18.9941 41.0522C9.61705 41.1955 2.128 33.2045 1.98844 24.0396C1.84522 14.6587 9.83292 7.16656 18.9941 7.02695C22.3628 6.9757 25.4848 7.97811 28.1129 9.70316C28.0705 9.35073 28.0428 8.99411 28.0428 8.63069C28.0428 8.21812 28.0804 7.81496 28.1343 7.41703C26.7366 6.63582 25.2229 6.0167 23.6136 5.59106C15.1649 3.35722 6.24677 7.64816 2.15884 15.2093C-2.00593 22.9127 0.0754056 32.6382 6.50916 38.3734C13.0391 44.1933 22.9811 44.4689 30.0489 39.5028C35.0703 35.9753 37.9075 30.1167 38 24.0396C37.9655 21.7817 37.5468 19.6064 36.8025 17.5817C35.9976 17.564 35.2193 17.4421 34.4797 17.2256Z" fill="#00A6E4"/>
<path d="M37.5 1C33.3584 1 30 4.35735 30 8.5C30 12.6416 33.3584 16 37.5 16C41.6416 16 45 12.6416 45 8.5C45 4.35735 41.6416 1 37.5 1" stroke="#00A6E4" stroke-width="2"/>
<path d="M38.4779 9.61516H36.6299V4.44122H38.4779V9.61516Z" fill="#00A6E4"/>
<path d="M37.5546 13.0641C37.0446 13.0641 36.6309 12.6509 36.6309 12.1404C36.6309 11.6294 37.0441 11.2161 37.5546 11.2161C38.0646 11.2161 38.4783 11.6294 38.4783 12.1404C38.4778 12.6509 38.0646 13.0641 37.5546 13.0641Z" fill="#00A6E4"/>
</svg>
