<svg width="29" height="47" viewBox="0 0 29 47" fill="none" xmlns="http://www.w3.org/2000/svg">
<path fill-rule="evenodd" clip-rule="evenodd" d="M3.85276 9.95295C3.83538 5.05501 7.63413 1.02821 12.353 1.00074L12.3524 1.00028C16.8428 0.974147 20.4995 4.59064 20.8772 9.15998H20.9498V9.91967C20.9498 9.9207 20.9495 9.92167 20.9492 9.92264C20.9489 9.92361 20.9486 9.92457 20.9486 9.92561L20.9544 10.6129H20.8831C20.6315 13.9457 18.6308 16.7785 15.8273 18.0767V16.3876C17.986 15.128 19.4493 12.7156 19.4506 9.92293V9.86477C19.4218 5.7617 16.2469 2.49684 12.3621 2.51946C8.47732 2.54255 5.33627 5.84369 5.35081 9.94681C5.36106 12.8533 6.95481 15.3384 9.26198 16.5422L9.26666 18.2111C6.10689 16.9057 3.86602 13.6951 3.85276 9.95295ZM9.66717 12.6928C9.66274 11.1387 10.9786 9.91041 12.5274 9.91041L12.5273 9.90981C14.0761 9.90981 15.3875 11.1384 15.3875 12.6898V19.462C15.7358 19.2803 16.1229 19.1688 16.5403 19.1688C17.5092 19.1688 18.3358 19.7271 18.7978 20.5362C19.2309 20.2016 19.7598 19.9973 20.3415 19.9973C21.3149 19.9973 22.1438 20.5614 22.6048 21.3766C23.0454 21.0405 23.5839 20.8354 24.1731 20.8354C25.6332 20.8354 26.9319 22.0562 26.8519 23.6035C26.8519 23.6035 26.9155 25.6529 26.9104 27.967C26.9054 30.2809 26.8777 32.7503 26.5289 34.0597C26.2421 35.1362 26.0059 35.6697 25.8373 36.0076C25.8066 36.0689 25.7802 36.1198 25.757 36.1645C25.6523 36.366 25.6132 36.4413 25.5529 36.778C25.4679 37.2527 25.4897 38.2022 25.5084 38.7746H26.2773C26.8717 38.7746 27.3371 39.1647 27.6033 39.6008C27.8694 40.0368 28 40.5615 28 41.1296V43.645C28 44.2131 27.8694 44.7378 27.6033 45.1738C27.3372 45.6099 26.8717 46 26.2773 46H8.76146C8.16705 46 7.70161 45.6099 7.43548 45.1738C7.16936 44.7378 7.03875 44.2131 7.03875 43.645V41.1296C7.03875 40.5615 7.16936 40.0368 7.43548 39.6008C7.70159 39.1647 8.16706 38.7746 8.76146 38.7746H9.60759V37.2707L9.60734 37.2664C9.60636 37.2488 9.60341 37.1959 9.59471 37.1199C9.58974 37.0764 9.58148 37.0338 9.57606 37.0057L9.57604 37.0057C9.57142 36.9818 9.56886 36.9685 9.57213 36.9744L9.56835 36.9673C9.55818 36.948 9.54291 36.9191 9.52801 36.8967C9.49749 36.851 9.47716 36.8232 9.47183 36.816L1.7008 26.8252C1.31801 26.3329 1.05898 25.7562 1.008 25.1372C0.957008 24.5183 1.14851 23.8446 1.61889 23.3425L1.86816 23.0766C2.33668 22.5765 2.96842 22.3309 3.60609 22.33C4.24376 22.3291 4.8877 22.5724 5.3838 23.0505L9.70931 27.2193L9.66717 12.6928ZM12.5274 11.4298C13.3174 11.4298 13.8896 12.003 13.8896 12.6904V21.9945V22.6533V24.9205C13.8862 25.1942 14.0282 25.4486 14.2614 25.5865C14.4945 25.7244 14.7827 25.7244 15.0159 25.5865C15.249 25.4486 15.391 25.1942 15.3876 24.9205V21.9945C15.3876 21.2308 15.9173 20.6888 16.5404 20.6888C17.1635 20.6888 17.6931 21.2308 17.6931 21.9945V22.7257C17.6929 22.7439 17.6932 22.7621 17.6943 22.7803C17.6942 22.7846 17.6939 22.7888 17.6934 22.793C17.6932 22.7957 17.6928 22.7983 17.6925 22.8009C17.6916 22.8082 17.6908 22.8155 17.6908 22.823V25.7348C17.6874 26.0085 17.8294 26.2629 18.0625 26.4007C18.2957 26.5386 18.5839 26.5386 18.817 26.4007C19.0502 26.2629 19.1922 26.0085 19.1888 25.7348V22.823C19.1888 22.0593 19.7184 21.5173 20.3415 21.5173C20.9646 21.5173 21.4955 22.0594 21.4955 22.823V23.5887C21.4956 23.5957 21.4958 23.6027 21.4961 23.6097C21.4963 23.613 21.4964 23.6163 21.4966 23.6195C21.4966 23.6228 21.4955 23.6258 21.4955 23.629V26.4945C21.492 26.7682 21.634 27.0226 21.8672 27.1604C22.1003 27.2983 22.3886 27.2983 22.6217 27.1604C22.8549 27.0226 22.9969 26.7682 22.9935 26.4945V23.629C22.9935 22.8949 23.5219 22.3554 24.1732 22.3554C24.822 22.3554 25.4128 22.9108 25.3563 23.5625C25.3538 23.5925 25.353 23.6227 25.354 23.6528C25.354 23.6528 25.4175 25.6806 25.4125 27.964C25.4075 30.2475 25.2874 32.8961 25.0825 33.6653C24.8155 34.6675 24.6447 35.0343 24.5008 35.3224L24.477 35.3701C24.338 35.6473 24.1754 35.9715 24.0795 36.507C23.9393 37.29 23.966 38.1773 23.9976 38.7754H11.1052V37.243C11.1052 37.2283 11.1048 37.2137 11.104 37.1991C11.104 37.1991 11.0977 37.0854 11.0818 36.9462L11.0765 36.8981C11.063 36.772 11.048 36.632 10.9741 36.4299C10.9094 36.2527 10.8484 36.1638 10.794 36.0844L10.7937 36.0841C10.785 36.0714 10.7765 36.059 10.7682 36.0465C10.7075 35.9555 10.6535 35.8838 10.6535 35.8838L10.6476 35.8755L2.87657 25.8847C2.64795 25.5907 2.52202 25.2674 2.5009 25.011C2.47978 24.7546 2.52974 24.5768 2.70454 24.3902L2.95382 24.1243C3.30712 23.7472 3.91194 23.7295 4.35115 24.1528L9.31092 28.9329C9.31415 28.9382 9.3173 28.9435 9.3204 28.9487C9.32313 28.9533 9.32582 28.9579 9.32851 28.9625L9.32852 28.9625C9.3485 28.9964 9.36805 29.0296 9.39869 29.0682C9.53146 29.2354 9.825 29.5068 10.2659 29.4849C10.5088 29.4724 10.723 29.3386 10.837 29.2202C10.9512 29.1015 11.0027 28.9967 11.0418 28.9068C11.12 28.7269 11.1439 28.5863 11.1647 28.4557C11.2064 28.1945 11.208 27.9667 11.208 27.9667L11.2092 27.9489L11.1647 12.69C11.1628 12.0052 11.737 11.4305 12.5269 11.4305L12.5274 11.4298ZM8.78902 40.2944H8.7613C8.7812 40.2944 8.79119 40.29 8.79178 40.291C8.79198 40.2914 8.79105 40.2924 8.78902 40.2944ZM26.25 40.2944H8.78902C8.78069 40.3029 8.75383 40.3292 8.70981 40.4013C8.62394 40.5419 8.5366 40.8144 8.5366 41.1301V43.6454C8.5366 43.9611 8.62394 44.2335 8.70981 44.3742C8.75383 44.4463 8.78069 44.4726 8.78902 44.481H8.7613C8.7812 44.481 8.79119 44.4855 8.79178 44.4845C8.79198 44.4841 8.79106 44.4831 8.78902 44.481H26.25C26.2478 44.4832 26.2468 44.4842 26.247 44.4845C26.2475 44.4854 26.2574 44.481 26.2771 44.481H26.25C26.2586 44.4726 26.2858 44.4463 26.3298 44.3742C26.4157 44.2335 26.5018 43.9611 26.5018 43.6454V41.1301C26.5018 40.8144 26.4157 40.542 26.3298 40.4013C26.2858 40.3292 26.2586 40.3029 26.25 40.2944ZM26.25 40.2944H26.2771C26.2574 40.2944 26.2475 40.2901 26.247 40.291C26.2468 40.2913 26.2478 40.2923 26.25 40.2944Z" fill="#00A6E4"/>
<path d="M12.353 1.00074L12.3545 1.25074L13.1225 1.24627L12.499 0.797792L12.353 1.00074ZM3.85276 9.95295L4.10276 9.95207V9.95207L3.85276 9.95295ZM12.3524 1.00028L12.3509 0.750284L11.5829 0.754754L12.2064 1.20323L12.3524 1.00028ZM20.8772 9.15998L20.6281 9.18057L20.647 9.40998H20.8772V9.15998ZM20.9498 9.15998H21.1998V8.90998H20.9498V9.15998ZM20.9492 9.92264L20.7099 9.85005L20.7099 9.85035L20.9492 9.92264ZM20.9486 9.92561H20.6986L20.6986 9.92774L20.9486 9.92561ZM20.9544 10.6129V10.8629H21.2066L21.2044 10.6108L20.9544 10.6129ZM20.8831 10.6129V10.3629H20.6512L20.6338 10.5941L20.8831 10.6129ZM15.8273 18.0767H15.5773V18.468L15.9324 18.3036L15.8273 18.0767ZM15.8273 16.3876L15.7013 16.1717L15.5773 16.244V16.3876H15.8273ZM19.4506 9.92293L19.7006 9.92305V9.92293H19.4506ZM19.4506 9.86477H19.7006L19.7006 9.86302L19.4506 9.86477ZM12.3621 2.51946L12.3606 2.26946L12.3606 2.26946L12.3621 2.51946ZM5.35081 9.94681L5.60081 9.94593V9.94593L5.35081 9.94681ZM9.26198 16.5422L9.51197 16.5415L9.51155 16.3904L9.37762 16.3205L9.26198 16.5422ZM9.26666 18.2111L9.1712 18.4422L9.51771 18.5853L9.51666 18.2104L9.26666 18.2111ZM12.5274 9.91041V10.1604H12.8179L12.7746 9.87319L12.5274 9.91041ZM9.66717 12.6928L9.41718 12.6935V12.6935L9.66717 12.6928ZM12.5273 9.90981V9.65981H12.2369L12.2801 9.94703L12.5273 9.90981ZM15.3875 19.462H15.1375V19.8744L15.5032 19.6836L15.3875 19.462ZM18.7978 20.5362L18.5807 20.6602L18.7233 20.9098L18.9507 20.7341L18.7978 20.5362ZM22.6048 21.3766L22.3872 21.4997L22.5284 21.7494L22.7565 21.5754L22.6048 21.3766ZM26.8519 23.6035L26.6023 23.5906L26.6017 23.6009L26.602 23.6112L26.8519 23.6035ZM26.9104 27.967L26.6604 27.9664L26.9104 27.967ZM26.5289 34.0597L26.7705 34.1241L26.5289 34.0597ZM25.8373 36.0076L26.0609 36.1193L25.8373 36.0076ZM25.757 36.1645L25.9788 36.2798H25.9788L25.757 36.1645ZM25.5529 36.778L25.799 36.8221V36.8221L25.5529 36.778ZM25.5084 38.7746L25.2585 38.7828L25.2664 39.0246H25.5084V38.7746ZM27.6033 39.6008L27.3899 39.731L27.3899 39.731L27.6033 39.6008ZM27.6033 45.1738L27.3899 45.0436L27.3899 45.0436L27.6033 45.1738ZM7.43548 45.1738L7.64888 45.0436L7.64887 45.0436L7.43548 45.1738ZM7.43548 39.6008L7.64888 39.731L7.64889 39.731L7.43548 39.6008ZM9.60759 38.7746V39.0246H9.85759V38.7746H9.60759ZM9.60759 37.2707H9.85759V37.2635L9.85718 37.2564L9.60759 37.2707ZM9.60734 37.2664L9.35773 37.2803L9.35775 37.2806L9.60734 37.2664ZM9.59471 37.1199L9.84309 37.0915L9.84309 37.0915L9.59471 37.1199ZM9.57606 37.0057L9.82151 36.9582L9.8212 36.9567L9.57606 37.0057ZM9.57604 37.0057L9.33059 37.0531L9.3309 37.0547L9.57604 37.0057ZM9.57213 36.9744L9.35341 37.0955L9.79311 36.8575L9.57213 36.9744ZM9.56835 36.9673L9.34725 37.084L9.34737 37.0842L9.56835 36.9673ZM9.52801 36.8967L9.32002 37.0355L9.32002 37.0355L9.52801 36.8967ZM9.47183 36.816L9.67237 36.6667L9.66916 36.6625L9.47183 36.816ZM1.7008 26.8252L1.50345 26.9786L1.50346 26.9787L1.7008 26.8252ZM1.008 25.1372L1.25716 25.1167L1.25716 25.1167L1.008 25.1372ZM1.61889 23.3425L1.4365 23.1715L1.43644 23.1716L1.61889 23.3425ZM1.86816 23.0766L2.05055 23.2476L2.05061 23.2475L1.86816 23.0766ZM3.60609 22.33L3.60573 22.08H3.60573L3.60609 22.33ZM5.3838 23.0505L5.55728 22.8705L5.55727 22.8705L5.3838 23.0505ZM9.70931 27.2193L9.53582 27.3993L9.96102 27.8091L9.9593 27.2186L9.70931 27.2193ZM12.5274 11.4298V11.1798H12.3883L12.315 11.298L12.5274 11.4298ZM13.8896 24.9205L14.1396 24.9236V24.9205H13.8896ZM14.2614 25.5865L14.3886 25.3713L14.3886 25.3713L14.2614 25.5865ZM15.0159 25.5865L14.8886 25.3713L14.8886 25.3713L15.0159 25.5865ZM15.3876 24.9205H15.1376L15.1376 24.9236L15.3876 24.9205ZM17.6931 22.7257L17.9431 22.7292V22.7257H17.6931ZM17.6943 22.7803L17.9443 22.7839L17.9444 22.775L17.9439 22.7661L17.6943 22.7803ZM17.6934 22.793L17.9421 22.8191L17.9421 22.819L17.6934 22.793ZM17.6925 22.8009L17.9407 22.8309L17.9407 22.8309L17.6925 22.8009ZM17.6908 25.7348L17.9408 25.7379V25.7348H17.6908ZM19.1888 25.7348H18.9388L18.9388 25.7379L19.1888 25.7348ZM21.4955 23.5887H21.2454L21.2455 23.5931L21.4955 23.5887ZM21.4961 23.6097L21.7459 23.5985L21.7459 23.5984L21.4961 23.6097ZM21.4966 23.6195L21.7466 23.6204L21.7466 23.6127L21.7462 23.605L21.4966 23.6195ZM21.4955 26.4945L21.7455 26.4976V26.4945H21.4955ZM22.9935 26.4945H22.7434L22.7435 26.4976L22.9935 26.4945ZM25.3563 23.5625L25.1073 23.541L25.1072 23.5414L25.3563 23.5625ZM25.354 23.6528L25.6039 23.6449L25.6039 23.6446L25.354 23.6528ZM25.4125 27.964L25.6625 27.9646V27.9646L25.4125 27.964ZM25.0825 33.6653L24.8409 33.601L25.0825 33.6653ZM24.5008 35.3224L24.7244 35.4343L24.7245 35.4341L24.5008 35.3224ZM24.477 35.3701L24.7005 35.4821L24.7005 35.482L24.477 35.3701ZM24.0795 36.507L24.3256 36.5511V36.5511L24.0795 36.507ZM23.9976 38.7754V39.0254H24.2612L24.2473 38.7622L23.9976 38.7754ZM11.1052 38.7754H10.8552V39.0254H11.1052V38.7754ZM11.1052 37.243L10.8552 37.2425V37.243H11.1052ZM11.104 37.1991L11.3537 37.1853L11.3536 37.1852L11.104 37.1991ZM11.0818 36.9462L10.8333 36.9735L10.8334 36.9746L11.0818 36.9462ZM11.0765 36.8981L10.8279 36.9248L10.828 36.9254L11.0765 36.8981ZM10.9741 36.4299L11.209 36.3441L11.2089 36.344L10.9741 36.4299ZM10.794 36.0844L11.0001 35.943L10.9993 35.9418L10.794 36.0844ZM10.7937 36.0841L10.5876 36.2255L10.5884 36.2267L10.7937 36.0841ZM10.7682 36.0465L10.5602 36.1852L10.5602 36.1852L10.7682 36.0465ZM10.6535 35.8838L10.449 36.0277L10.5237 36.1338H10.6535V35.8838ZM10.6476 35.8755L10.8523 35.7315L10.8449 35.722L10.6476 35.8755ZM2.87657 25.8847L2.67923 26.0381L2.67924 26.0382L2.87657 25.8847ZM2.5009 25.011L2.75006 24.9905L2.75006 24.9905L2.5009 25.011ZM2.70454 24.3902L2.52215 24.2192L2.52208 24.2193L2.70454 24.3902ZM2.95382 24.1243L3.1362 24.2953L3.13626 24.2952L2.95382 24.1243ZM4.35115 24.1528L4.52464 23.9728L4.52464 23.9728L4.35115 24.1528ZM9.31092 28.9329L9.52461 28.8031L9.50777 28.7754L9.4844 28.7529L9.31092 28.9329ZM9.3204 28.9487L9.10535 29.0762L9.10536 29.0762L9.3204 28.9487ZM9.32851 28.9625L9.55212 28.8507L9.54828 28.843L9.54393 28.8356L9.32851 28.9625ZM9.32852 28.9625L9.10491 29.0743L9.10874 29.0819L9.11308 29.0893L9.32852 28.9625ZM9.39869 29.0682L9.2029 29.2237L9.20291 29.2237L9.39869 29.0682ZM10.2659 29.4849L10.2784 29.7346L10.2787 29.7345L10.2659 29.4849ZM10.837 29.2202L10.6569 29.0468L10.6569 29.0468L10.837 29.2202ZM11.0418 28.9068L11.2711 29.0065L11.2711 29.0064L11.0418 28.9068ZM11.1647 28.4557L10.9178 28.4163L10.9178 28.4163L11.1647 28.4557ZM11.208 27.9667L10.9586 27.9503L10.9581 27.9576L10.958 27.9649L11.208 27.9667ZM11.2092 27.9489L11.4586 27.9653L11.4592 27.9567L11.4592 27.9481L11.2092 27.9489ZM11.1647 12.69L10.9147 12.6907V12.6907L11.1647 12.69ZM12.5269 11.4305V11.6805H12.666L12.7394 11.5623L12.5269 11.4305ZM8.79178 40.291L9.00828 40.166L9.00811 40.1657L8.79178 40.291ZM8.70981 40.4013L8.9232 40.5315L8.9232 40.5315L8.70981 40.4013ZM8.70981 44.3742L8.49641 44.5045L8.49642 44.5045L8.70981 44.3742ZM8.79178 44.4845L9.00815 44.6097L9.00828 44.6095L8.79178 44.4845ZM26.247 44.4845L26.0292 44.6072L26.0298 44.6083L26.247 44.4845ZM26.3298 44.3742L26.5432 44.5045H26.5432L26.3298 44.3742ZM26.3298 40.4013L26.5432 40.271L26.3298 40.4013ZM26.247 40.291L26.4642 40.4148L26.4644 40.4145L26.247 40.291ZM12.3516 0.750748C7.48449 0.779075 3.58493 4.92862 3.60276 9.95384L4.10276 9.95207C4.08583 5.1814 7.78378 1.27734 12.3545 1.25074L12.3516 0.750748ZM12.2064 1.20323L12.207 1.2037L12.499 0.797792L12.4984 0.797328L12.2064 1.20323ZM21.1264 9.13938C20.7389 4.45236 16.9842 0.72332 12.3509 0.750284L12.3538 1.25028C16.7014 1.22497 20.2601 4.72893 20.6281 9.18057L21.1264 9.13938ZM20.9498 8.90998H20.8772V9.40998H20.9498V8.90998ZM21.1998 9.91967V9.15998H20.6998V9.91967H21.1998ZM21.1884 9.99523C21.1884 9.99521 21.1886 9.99453 21.1888 9.99376C21.1891 9.99293 21.1895 9.99163 21.1899 9.99005C21.1908 9.98695 21.1922 9.98196 21.1935 9.97578C21.1963 9.96339 21.1998 9.94384 21.1998 9.91967H20.6998C20.6998 9.89653 20.7031 9.87799 20.7056 9.86658C20.7079 9.85647 20.7106 9.84805 20.7099 9.85005L21.1884 9.99523ZM21.1986 9.92561C21.1986 9.94862 21.1953 9.96707 21.1928 9.97844C21.1905 9.98853 21.1879 9.99692 21.1885 9.99493L20.7099 9.85035C20.7098 9.85038 20.7096 9.85105 20.7094 9.85182C20.7092 9.85265 20.7088 9.85394 20.7083 9.85552C20.7075 9.85861 20.7061 9.86359 20.7048 9.86975C20.702 9.8821 20.6986 9.90156 20.6986 9.92561H21.1986ZM21.2044 10.6108L21.1986 9.92348L20.6986 9.92774L20.7045 10.615L21.2044 10.6108ZM20.8831 10.8629H20.9544V10.3629H20.8831V10.8629ZM15.9324 18.3036C18.82 16.9664 20.8741 14.0528 21.1323 10.6317L20.6338 10.5941C20.3889 13.8386 18.4416 16.5906 15.7222 17.8499L15.9324 18.3036ZM15.5773 16.3876V18.0767H16.0773V16.3876H15.5773ZM19.2006 9.92281C19.1993 12.6271 17.7828 14.9571 15.7013 16.1717L15.9533 16.6035C18.1891 15.2989 19.6992 12.8041 19.7006 9.92305L19.2006 9.92281ZM19.2006 9.86477V9.92293H19.7006V9.86477H19.2006ZM12.3635 2.76945C16.0997 2.74771 19.1727 5.89044 19.2006 9.86652L19.7006 9.86302C19.6709 5.63297 16.3941 2.24598 12.3606 2.26946L12.3635 2.76945ZM5.60081 9.94593C5.58672 5.96976 8.62727 2.79167 12.3635 2.76945L12.3606 2.26946C8.32737 2.29344 5.08582 5.71762 5.10081 9.9477L5.60081 9.94593ZM9.37762 16.3205C7.15335 15.16 5.61073 12.7602 5.60081 9.94593L5.10081 9.9477C5.11139 12.9463 6.75628 15.5168 9.14633 16.7638L9.37762 16.3205ZM9.51666 18.2104L9.51197 16.5415L9.01198 16.5429L9.01666 18.2118L9.51666 18.2104ZM3.60276 9.95384C3.61638 13.7958 5.91719 17.0978 9.1712 18.4422L9.36212 17.9801C6.29659 16.7135 4.11567 13.5945 4.10276 9.95207L3.60276 9.95384ZM12.5274 9.66041C10.8506 9.66041 9.41232 10.991 9.41718 12.6935L9.91717 12.6921C9.91316 11.2865 11.1067 10.1604 12.5274 10.1604V9.66041ZM12.2801 9.94703L12.2802 9.94763L12.7746 9.87319L12.7745 9.87259L12.2801 9.94703ZM15.6375 12.6898C15.6375 10.991 14.2046 9.65981 12.5273 9.65981V10.1598C13.9475 10.1598 15.1375 11.2858 15.1375 12.6898H15.6375ZM15.6375 19.462V12.6898H15.1375V19.462H15.6375ZM16.5403 18.9188C16.0772 18.9188 15.6506 19.0427 15.2719 19.2404L15.5032 19.6836C15.8209 19.5178 16.1687 19.4188 16.5403 19.4188V18.9188ZM19.0149 20.4123C18.5148 19.5363 17.611 18.9188 16.5403 18.9188V19.4188C17.4074 19.4188 18.1569 19.918 18.5807 20.6602L19.0149 20.4123ZM20.3415 19.7473C19.6992 19.7473 19.1174 19.9733 18.645 20.3384L18.9507 20.7341C19.3443 20.4299 19.8204 20.2473 20.3415 20.2473V19.7473ZM22.8225 21.2536C22.3235 20.3713 21.4174 19.7473 20.3415 19.7473V20.2473C21.2124 20.2473 21.9641 20.7515 22.3872 21.4997L22.8225 21.2536ZM24.1731 20.5854C23.5241 20.5854 22.9332 20.8117 22.4532 21.1779L22.7565 21.5754C23.1577 21.2693 23.6437 21.0854 24.1731 21.0854V20.5854ZM27.1016 23.6164C27.1895 21.9145 25.7644 20.5854 24.1731 20.5854V21.0854C25.502 21.0854 26.6742 22.1979 26.6023 23.5906L27.1016 23.6164ZM27.1604 27.9675C27.163 26.8082 27.1483 25.7155 27.133 24.9127C27.1254 24.5113 27.1176 24.1822 27.1117 23.9534C27.1087 23.839 27.1063 23.7497 27.1045 23.6889C27.1037 23.6585 27.103 23.6353 27.1025 23.6196C27.1023 23.6118 27.1021 23.6058 27.102 23.6018C27.1019 23.5998 27.1019 23.5983 27.1018 23.5973C27.1018 23.5968 27.1018 23.5964 27.1018 23.5961C27.1018 23.596 27.1018 23.5959 27.1018 23.5958C27.1018 23.5958 27.1018 23.5958 27.1018 23.5958C27.1018 23.5957 27.1018 23.5957 26.8519 23.6035C26.602 23.6112 26.602 23.6113 26.602 23.6113C26.602 23.6113 26.602 23.6113 26.602 23.6113C26.602 23.6114 26.602 23.6115 26.6021 23.6116C26.6021 23.6118 26.6021 23.6122 26.6021 23.6127C26.6021 23.6136 26.6022 23.6151 26.6022 23.6171C26.6023 23.6209 26.6025 23.6268 26.6027 23.6345C26.6032 23.65 26.6039 23.673 26.6047 23.7032C26.6065 23.7635 26.6089 23.8524 26.6119 23.9663C26.6177 24.1941 26.6255 24.522 26.6331 24.9222C26.6484 25.7227 26.663 26.8117 26.6604 27.9664L27.1604 27.9675ZM26.7705 34.1241C26.9523 33.4417 27.0471 32.474 27.0983 31.402C27.1497 30.3253 27.1579 29.1243 27.1604 27.9675L26.6604 27.9664C26.6579 29.1236 26.6497 30.3142 26.5989 31.3781C26.5478 32.4466 26.4544 33.3683 26.2873 33.9954L26.7705 34.1241ZM26.0609 36.1193C26.2377 35.7651 26.4797 35.2156 26.7705 34.1241L26.2873 33.9954C26.0046 35.0567 25.7741 35.5743 25.6136 35.896L26.0609 36.1193ZM25.9788 36.2798C26.0021 36.2351 26.0293 36.1826 26.0609 36.1193L25.6136 35.896C25.584 35.9553 25.5584 36.0046 25.5352 36.0492L25.9788 36.2798ZM25.799 36.8221C25.8283 36.6583 25.8503 36.5709 25.874 36.5038C25.8976 36.4369 25.9252 36.383 25.9788 36.2798L25.5352 36.0492C25.4841 36.1476 25.4397 36.232 25.4025 36.3373C25.3654 36.4425 25.3377 36.561 25.3068 36.7339L25.799 36.8221ZM25.7583 38.7664C25.7392 38.1833 25.7197 37.2647 25.799 36.8221L25.3068 36.7339C25.2161 37.2406 25.2402 38.2211 25.2585 38.7828L25.7583 38.7664ZM26.2773 38.5246H25.5084V39.0246H26.2773V38.5246ZM27.8167 39.4705C27.5233 38.99 26.9889 38.5246 26.2773 38.5246V39.0246C26.7545 39.0246 27.1509 39.3395 27.3899 39.731L27.8167 39.4705ZM28.25 41.1296C28.25 40.5237 28.1106 39.9522 27.8167 39.4705L27.3899 39.731C27.6281 40.1214 27.75 40.5993 27.75 41.1296H28.25ZM28.25 43.645V41.1296H27.75V43.645H28.25ZM27.8167 45.3041C28.1106 44.8224 28.25 44.2509 28.25 43.645H27.75C27.75 44.1753 27.6281 44.6532 27.3899 45.0436L27.8167 45.3041ZM26.2773 46.25C26.9888 46.25 27.5234 45.7847 27.8167 45.3041L27.3899 45.0436C27.151 45.4351 26.7545 45.75 26.2773 45.75V46.25ZM8.76146 46.25H26.2773V45.75H8.76146V46.25ZM7.22209 45.3041C7.51541 45.7846 8.04989 46.25 8.76146 46.25V45.75C8.28421 45.75 7.88781 45.4351 7.64888 45.0436L7.22209 45.3041ZM6.78875 43.645C6.78875 44.2509 6.9281 44.8224 7.2221 45.3041L7.64887 45.0436C7.41061 44.6532 7.28875 44.1753 7.28875 43.645H6.78875ZM6.78875 41.1296V43.645H7.28875V41.1296H6.78875ZM7.22209 39.4705C6.9281 39.9522 6.78875 40.5237 6.78875 41.1296H7.28875C7.28875 40.5993 7.41061 40.1214 7.64888 39.731L7.22209 39.4705ZM8.76146 38.5246C8.04991 38.5246 7.51539 38.9899 7.22208 39.4706L7.64889 39.731C7.88779 39.3395 8.2842 39.0246 8.76146 39.0246V38.5246ZM9.60759 38.5246H8.76146V39.0246H9.60759V38.5246ZM9.35759 37.2707V38.7746H9.85759V37.2707H9.35759ZM9.35775 37.2806L9.35799 37.2849L9.85718 37.2564L9.85694 37.2521L9.35775 37.2806ZM9.34633 37.1483C9.35425 37.2175 9.35688 37.2651 9.35773 37.2803L9.85695 37.2524C9.85585 37.2326 9.85257 37.1743 9.84309 37.0915L9.34633 37.1483ZM9.33061 37.0532C9.33616 37.0819 9.3426 37.1157 9.34633 37.1483L9.84309 37.0915C9.83688 37.0372 9.8268 36.9856 9.8215 36.9582L9.33061 37.0532ZM9.3309 37.0547L9.33091 37.0547L9.8212 36.9567L9.82119 36.9566L9.3309 37.0547ZM9.79085 36.8534C9.78809 36.8484 9.78254 36.8387 9.7744 36.8274C9.76982 36.821 9.74853 36.791 9.71019 36.7653C9.68964 36.7516 9.64893 36.7287 9.59195 36.7239C9.52677 36.7184 9.46343 36.7387 9.41432 36.7782C9.33824 36.8393 9.32611 36.9215 9.32501 36.9273C9.31816 36.9638 9.32143 36.9943 9.32149 36.9951C9.32218 37.0039 9.32319 37.0111 9.32374 37.0149C9.32561 37.0278 9.32893 37.0445 9.3306 37.0531L9.82149 36.9582C9.81854 36.9429 9.81826 36.9411 9.81852 36.9428C9.81866 36.9438 9.81939 36.9488 9.81994 36.9557C9.82021 36.9592 9.82065 36.9657 9.82066 36.9739C9.82067 36.9802 9.82054 36.9977 9.81641 37.0196C9.81432 37.0308 9.80991 37.0502 9.80002 37.073C9.79075 37.0943 9.77011 37.1337 9.72744 37.168C9.67841 37.2074 9.61516 37.2276 9.55007 37.2222C9.49319 37.2174 9.45259 37.1946 9.43215 37.1809C9.39405 37.1554 9.37303 37.1256 9.36877 37.1197C9.36095 37.1089 9.35577 37.0998 9.35341 37.0955L9.79085 36.8534ZM9.34737 37.0842L9.35115 37.0914L9.79311 36.8575L9.78933 36.8504L9.34737 37.0842ZM9.32002 37.0355C9.32231 37.0389 9.32626 37.0454 9.33174 37.0552C9.33702 37.0646 9.34206 37.0741 9.34725 37.084L9.78945 36.8506C9.78063 36.8339 9.75933 36.793 9.73599 36.758L9.32002 37.0355ZM9.27133 36.9654C9.27405 36.969 9.29189 36.9933 9.32002 37.0355L9.73599 36.758C9.7031 36.7087 9.68027 36.6774 9.67233 36.6667L9.27133 36.9654ZM1.50346 26.9787L9.2745 36.9695L9.66916 36.6625L1.89813 26.6717L1.50346 26.9787ZM0.758844 25.1578C0.814529 25.8338 1.0967 26.4556 1.50345 26.9786L1.89814 26.6717C1.53931 26.2103 1.30343 25.6785 1.25716 25.1167L0.758844 25.1578ZM1.43644 23.1716C0.912678 23.7307 0.702698 24.4763 0.758844 25.1578L1.25716 25.1167C1.21132 24.5603 1.38435 23.9585 1.80133 23.5134L1.43644 23.1716ZM1.68578 22.9056L1.4365 23.1715L1.80127 23.5135L2.05055 23.2476L1.68578 22.9056ZM3.60573 22.08C2.90391 22.081 2.20464 22.3518 1.68572 22.9057L2.05061 23.2475C2.46872 22.8012 3.03292 22.5808 3.60644 22.58L3.60573 22.08ZM5.55727 22.8705C5.01348 22.3464 4.3068 22.079 3.60573 22.08L3.60644 22.58C4.18072 22.5792 4.76192 22.7984 5.21032 23.2305L5.55727 22.8705ZM9.88279 27.0393L5.55728 22.8705L5.21031 23.2305L9.53582 27.3993L9.88279 27.0393ZM9.41718 12.6935L9.45931 27.22L9.9593 27.2186L9.91717 12.692L9.41718 12.6935ZM14.1396 12.6904C14.1396 11.8526 13.4427 11.1798 12.5274 11.1798V11.6798C13.1921 11.6798 13.6396 12.1535 13.6396 12.6904H14.1396ZM14.1396 21.9945V12.6904H13.6396V21.9945H14.1396ZM14.1396 22.6533V21.9945H13.6396V22.6533H14.1396ZM14.1396 24.9205V22.6533H13.6396V24.9205H14.1396ZM14.3886 25.3713C14.2335 25.2796 14.1373 25.109 14.1396 24.9236L13.6396 24.9174C13.6351 25.2794 13.8229 25.6177 14.1341 25.8017L14.3886 25.3713ZM14.8886 25.3713C14.734 25.4627 14.5433 25.4627 14.3886 25.3713L14.1341 25.8017C14.4457 25.986 14.8315 25.986 15.1431 25.8017L14.8886 25.3713ZM15.1376 24.9236C15.14 25.109 15.0437 25.2796 14.8886 25.3713L15.1431 25.8017C15.4543 25.6177 15.6421 25.2794 15.6376 24.9174L15.1376 24.9236ZM15.1376 21.9945V24.9205H15.6376V21.9945H15.1376ZM16.5404 20.4388C15.7576 20.4388 15.1376 21.1153 15.1376 21.9945H15.6376C15.6376 21.3463 16.0769 20.9388 16.5404 20.9388V20.4388ZM17.9431 21.9945C17.9431 21.1153 17.3231 20.4388 16.5404 20.4388V20.9388C17.0039 20.9388 17.4431 21.3463 17.4431 21.9945H17.9431ZM17.9431 22.7257V21.9945H17.4431V22.7257H17.9431ZM17.9439 22.7661C17.9432 22.7538 17.9429 22.7415 17.9431 22.7292L17.4431 22.7222C17.4428 22.7463 17.4433 22.7704 17.4447 22.7945L17.9439 22.7661ZM17.9421 22.819C17.9429 22.8109 17.944 22.7985 17.9443 22.7839L17.4443 22.7766C17.4444 22.7735 17.4445 22.7711 17.4446 22.7695C17.4447 22.7687 17.4447 22.7681 17.4447 22.7676C17.4448 22.7674 17.4448 22.7673 17.4448 22.7672C17.4448 22.7671 17.4448 22.767 17.4448 22.767L17.9421 22.819ZM17.9407 22.8309C17.941 22.8286 17.9416 22.824 17.9421 22.8191L17.4448 22.7669C17.4448 22.7673 17.4447 22.768 17.4443 22.771L17.9407 22.8309ZM17.9408 22.823C17.9408 22.8289 17.9404 22.833 17.9403 22.8343C17.9402 22.835 17.9402 22.8352 17.9407 22.8309L17.4443 22.771C17.4437 22.776 17.4408 22.798 17.4408 22.823H17.9408ZM17.9408 25.7348V22.823H17.4408V25.7348H17.9408ZM18.1898 26.1855C18.0347 26.0938 17.9384 25.9233 17.9408 25.7379L17.4408 25.7316C17.4363 26.0937 17.6241 26.4319 17.9353 26.6159L18.1898 26.1855ZM18.6898 26.1855C18.5351 26.277 18.3444 26.277 18.1898 26.1855L17.9353 26.6159C18.2469 26.8002 18.6326 26.8002 18.9443 26.6159L18.6898 26.1855ZM18.9388 25.7379C18.9411 25.9233 18.8449 26.0938 18.6898 26.1855L18.9443 26.6159C19.2555 26.4319 19.4433 26.0937 19.4388 25.7316L18.9388 25.7379ZM18.9388 22.823V25.7348H19.4388V22.823H18.9388ZM20.3415 21.2673C19.5588 21.2673 18.9388 21.9438 18.9388 22.823H19.4388C19.4388 22.1748 19.878 21.7673 20.3415 21.7673V21.2673ZM21.7455 22.823C21.7455 21.9435 21.1239 21.2673 20.3415 21.2673V21.7673C20.8053 21.7673 21.2455 22.1752 21.2455 22.823H21.7455ZM21.7455 23.5887V22.823H21.2455V23.5887H21.7455ZM21.7459 23.5984C21.7456 23.5936 21.7455 23.5889 21.7454 23.5842L21.2455 23.5931C21.2457 23.6025 21.246 23.6118 21.2464 23.621L21.7459 23.5984ZM21.7462 23.605C21.7461 23.6028 21.746 23.6006 21.7459 23.5985L21.2464 23.6209C21.2466 23.6253 21.2468 23.6297 21.247 23.6341L21.7462 23.605ZM21.7455 23.629C21.7455 23.6429 21.7442 23.6541 21.7433 23.6608C21.7428 23.6642 21.7424 23.6669 21.7421 23.6684C21.7419 23.6697 21.7417 23.6707 21.7418 23.6702C21.7418 23.67 21.7421 23.6682 21.7425 23.6662C21.7429 23.664 21.7435 23.6607 21.744 23.6566C21.7452 23.6484 21.7466 23.6358 21.7466 23.6204L21.2466 23.6187C21.2467 23.6049 21.2479 23.5939 21.2488 23.5873C21.2493 23.584 21.2498 23.5814 21.25 23.58C21.2502 23.5787 21.2504 23.5777 21.2503 23.5784C21.2502 23.5786 21.2499 23.5804 21.2495 23.5825C21.2491 23.5848 21.2486 23.5882 21.248 23.5924C21.2468 23.6007 21.2455 23.6135 21.2455 23.629H21.7455ZM21.7455 26.4945V23.629H21.2455V26.4945H21.7455ZM21.9944 26.9452C21.8393 26.8535 21.7431 26.683 21.7454 26.4976L21.2455 26.4913C21.241 26.8534 21.4288 27.1916 21.7399 27.3756L21.9944 26.9452ZM22.4945 26.9452C22.3398 27.0367 22.1491 27.0367 21.9944 26.9452L21.7399 27.3756C22.0516 27.5599 22.4373 27.5599 22.749 27.3756L22.4945 26.9452ZM22.7435 26.4976C22.7458 26.683 22.6496 26.8535 22.4945 26.9452L22.749 27.3756C23.0602 27.1916 23.2479 26.8534 23.2434 26.4913L22.7435 26.4976ZM22.7435 23.629V26.4945H23.2435V23.629H22.7435ZM24.1732 22.1054C23.37 22.1054 22.7435 22.7711 22.7435 23.629H23.2435C23.2435 23.0187 23.6738 22.6054 24.1732 22.6054V22.1054ZM25.6054 23.5841C25.6764 22.764 24.9452 22.1054 24.1732 22.1054V22.6054C24.6988 22.6054 25.1491 23.0575 25.1073 23.541L25.6054 23.5841ZM25.6039 23.6446C25.6032 23.6243 25.6037 23.6039 25.6055 23.5837L25.1072 23.5414C25.1039 23.5812 25.1028 23.6211 25.1041 23.6609L25.6039 23.6446ZM25.6625 27.9646C25.665 26.8205 25.6504 25.7408 25.6351 24.9473C25.6275 24.5505 25.6197 24.225 25.6138 23.9988C25.6108 23.8856 25.6084 23.7973 25.6066 23.7371C25.6058 23.7071 25.6051 23.6841 25.6046 23.6686C25.6044 23.6608 25.6042 23.6549 25.6041 23.651C25.604 23.649 25.604 23.6475 25.6039 23.6465C25.6039 23.646 25.6039 23.6456 25.6039 23.6453C25.6039 23.6452 25.6039 23.6451 25.6039 23.645C25.6039 23.645 25.6039 23.645 25.6039 23.645C25.6039 23.6449 25.6039 23.6449 25.354 23.6528C25.1041 23.6606 25.1041 23.6606 25.1041 23.6606C25.1041 23.6606 25.1041 23.6606 25.1041 23.6607C25.1041 23.6607 25.1041 23.6608 25.1041 23.6609C25.1041 23.6611 25.1042 23.6615 25.1042 23.662C25.1042 23.6629 25.1042 23.6644 25.1043 23.6663C25.1044 23.6702 25.1046 23.676 25.1048 23.6836C25.1053 23.6989 25.106 23.7217 25.1068 23.7516C25.1085 23.8112 25.111 23.8991 25.1139 24.0118C25.1198 24.2371 25.1276 24.5614 25.1352 24.9569C25.1504 25.7481 25.165 26.8241 25.1625 27.9635L25.6625 27.9646ZM25.3241 33.7297C25.4344 33.3153 25.5162 32.4336 25.5721 31.396C25.6286 30.3473 25.66 29.1099 25.6625 27.9646L25.1625 27.9635C25.16 29.1016 25.1288 30.3302 25.0728 31.369C25.0162 32.4189 24.9355 33.2461 24.8409 33.601L25.3241 33.7297ZM24.7245 35.4341C24.8767 35.1292 25.0532 34.7463 25.3241 33.7297L24.8409 33.601C24.5778 34.5887 24.4126 34.9395 24.2772 35.2108L24.7245 35.4341ZM24.7005 35.482L24.7244 35.4343L24.2773 35.2105L24.2534 35.2582L24.7005 35.482ZM24.3256 36.5511C24.415 36.0518 24.5644 35.7535 24.7005 35.4821L24.2535 35.258C24.1116 35.541 23.9358 35.8912 23.8334 36.463L24.3256 36.5511ZM24.2473 38.7622C24.2157 38.1654 24.1909 37.3032 24.3256 36.5511L23.8334 36.463C23.6877 37.2767 23.7162 38.1892 23.748 38.7886L24.2473 38.7622ZM11.1052 39.0254H23.9976V38.5254H11.1052V39.0254ZM10.8552 37.243V38.7754H11.3552V37.243H10.8552ZM10.8544 37.2128C10.855 37.2227 10.8552 37.2326 10.8552 37.2425L11.3552 37.2434C11.3552 37.224 11.3547 37.2046 11.3537 37.1853L10.8544 37.2128ZM10.8334 36.9746C10.8409 37.0405 10.8462 37.1006 10.8496 37.1443C10.8513 37.166 10.8526 37.1836 10.8533 37.1955C10.8537 37.2014 10.854 37.206 10.8542 37.2089C10.8543 37.2104 10.8543 37.2115 10.8544 37.2122C10.8544 37.2125 10.8544 37.2128 10.8544 37.2129C10.8544 37.2129 10.8544 37.213 10.8544 37.213C10.8544 37.213 10.8544 37.213 10.8544 37.213C10.8544 37.213 10.8544 37.213 10.8544 37.213C10.8544 37.213 10.8544 37.2129 10.8544 37.2129C10.8544 37.2129 10.8544 37.2129 11.104 37.1991C11.3536 37.1852 11.3536 37.1852 11.3536 37.1852C11.3536 37.1852 11.3536 37.1851 11.3536 37.1851C11.3536 37.1851 11.3536 37.1851 11.3536 37.1851C11.3536 37.185 11.3536 37.185 11.3536 37.185C11.3536 37.1848 11.3536 37.1847 11.3536 37.1846C11.3536 37.1842 11.3536 37.1838 11.3535 37.1833C11.3535 37.1822 11.3534 37.1807 11.3533 37.1788C11.353 37.1751 11.3527 37.1696 11.3523 37.1628C11.3514 37.149 11.35 37.1295 11.3481 37.1054C11.3444 37.0575 11.3386 36.9912 11.3302 36.9178L10.8334 36.9746ZM10.828 36.9254L10.8333 36.9735L11.3303 36.919L11.325 36.8708L10.828 36.9254ZM10.7393 36.5156C10.8025 36.6886 10.815 36.8043 10.8279 36.9248L11.3251 36.8714C11.311 36.7397 11.2934 36.5754 11.209 36.3441L10.7393 36.5156ZM10.5878 36.2258C10.637 36.2976 10.6849 36.3667 10.7393 36.5157L11.2089 36.344C11.1339 36.1386 11.0598 36.0299 11.0001 35.943L10.5878 36.2258ZM10.5884 36.2267L10.5886 36.227L10.9993 35.9418L10.9991 35.9415L10.5884 36.2267ZM10.5602 36.1852C10.5696 36.1993 10.579 36.2131 10.5876 36.2255L10.9999 35.9427C10.9911 35.9298 10.9834 35.9187 10.9761 35.9077L10.5602 36.1852ZM10.6535 36.1338C10.5452 36.1092 10.4572 36.0387 10.4561 36.0373C10.4557 36.0368 10.4551 36.036 10.4549 36.0358C10.4546 36.0354 10.4544 36.0351 10.4543 36.035C10.4542 36.0348 10.4541 36.0346 10.454 36.0346C10.454 36.0345 10.4539 36.0344 10.4539 36.0345C10.4539 36.0345 10.454 36.0346 10.4542 36.0348C10.4544 36.0351 10.4549 36.0358 10.4556 36.0367C10.4569 36.0385 10.459 36.0413 10.4618 36.045C10.4672 36.0524 10.4753 36.0634 10.4852 36.0771C10.5051 36.1047 10.5319 36.1428 10.5602 36.1852L10.9761 35.9077C10.9437 35.8592 10.9133 35.816 10.8909 35.785C10.8797 35.7694 10.8705 35.7568 10.8639 35.7479C10.8607 35.7435 10.8581 35.74 10.8562 35.7375C10.8553 35.7363 10.8546 35.7353 10.854 35.7346C10.8537 35.7342 10.8535 35.7339 10.8533 35.7336C10.8532 35.7335 10.8531 35.7333 10.853 35.7332C10.8529 35.7331 10.8528 35.7329 10.8526 35.7327C10.8525 35.7326 10.8523 35.7323 10.852 35.7319C10.8518 35.7316 10.8512 35.7309 10.8508 35.7304C10.8497 35.729 10.7617 35.6585 10.6535 35.6338V36.1338ZM10.4432 36.0194L10.449 36.0277L10.8579 35.7399L10.852 35.7316L10.4432 36.0194ZM2.67924 26.0382L10.4503 36.029L10.8449 35.722L3.07391 25.7312L2.67924 26.0382ZM2.25175 25.0315C2.27754 25.3447 2.42641 25.713 2.67923 26.0381L3.07392 25.7312C2.86949 25.4683 2.7665 25.1901 2.75006 24.9905L2.25175 25.0315ZM2.52208 24.2193C2.41473 24.3339 2.33616 24.4565 2.29097 24.5988C2.24631 24.7394 2.23951 24.883 2.25175 25.0315L2.75006 24.9905C2.74118 24.8827 2.74879 24.8091 2.76753 24.7501C2.78574 24.6927 2.81954 24.6331 2.88699 24.5611L2.52208 24.2193ZM2.77143 23.9533L2.52215 24.2192L2.88692 24.5612L3.1362 24.2953L2.77143 23.9533ZM4.52464 23.9728C3.99575 23.4631 3.22991 23.4639 2.77137 23.9534L3.13626 24.2952C3.38434 24.0304 3.82813 23.9959 4.17767 24.3328L4.52464 23.9728ZM9.4844 28.7529L4.52464 23.9728L4.17767 24.3328L9.13743 29.1129L9.4844 28.7529ZM9.53546 28.8213C9.53207 28.8155 9.52844 28.8095 9.52461 28.8031L9.09723 29.0626C9.09987 29.067 9.10254 29.0715 9.10535 29.0762L9.53546 28.8213ZM9.54393 28.8356C9.5413 28.8311 9.5384 28.8262 9.53545 28.8212L9.10536 29.0762C9.10786 29.0804 9.11035 29.0847 9.11309 29.0893L9.54393 28.8356ZM9.55212 28.8507L9.55212 28.8507L9.1049 29.0743L9.10491 29.0743L9.55212 28.8507ZM9.59448 28.9128C9.57572 28.8891 9.56381 28.8694 9.54395 28.8356L9.11308 29.0893C9.13319 29.1235 9.16038 29.1701 9.2029 29.2237L9.59448 28.9128ZM10.2535 29.2352C9.92983 29.2513 9.70546 29.0525 9.59447 28.9127L9.20291 29.2237C9.35747 29.4183 9.72016 29.7624 10.2784 29.7346L10.2535 29.2352ZM10.6569 29.0468C10.576 29.1308 10.4184 29.2267 10.2531 29.2352L10.2787 29.7345C10.5992 29.7181 10.87 29.5463 11.0171 29.3935L10.6569 29.0468ZM10.8126 28.8071C10.7796 28.8829 10.7424 28.958 10.6569 29.0468L11.0171 29.3936C11.16 29.2451 11.2259 29.1105 11.2711 29.0065L10.8126 28.8071ZM10.9178 28.4163C10.8978 28.542 10.8778 28.6571 10.8125 28.8071L11.2711 29.0064C11.3623 28.7967 11.39 28.6307 11.4116 28.4951L10.9178 28.4163ZM11.208 27.9667C10.958 27.9649 10.958 27.9649 10.958 27.9649C10.958 27.9648 10.958 27.9648 10.958 27.9648C10.958 27.9648 10.958 27.9648 10.958 27.9648C10.958 27.9647 10.958 27.9647 10.958 27.9647C10.958 27.9647 10.958 27.9648 10.958 27.9649C10.958 27.9651 10.958 27.9655 10.958 27.9661C10.958 27.9674 10.958 27.9694 10.9579 27.9723C10.9578 27.978 10.9576 27.9869 10.9572 27.9985C10.9565 28.0217 10.9551 28.0557 10.9525 28.0976C10.9472 28.1819 10.9371 28.2958 10.9178 28.4163L11.4116 28.4951C11.434 28.3544 11.4456 28.2238 11.4515 28.1289C11.4545 28.0812 11.4561 28.0419 11.457 28.0142C11.4574 28.0004 11.4577 27.9894 11.4578 27.9816C11.4579 27.9777 11.4579 27.9747 11.458 27.9725C11.458 27.9714 11.458 27.9705 11.458 27.9698C11.458 27.9695 11.458 27.9692 11.458 27.9689C11.458 27.9688 11.458 27.9687 11.458 27.9686C11.458 27.9686 11.458 27.9686 11.458 27.9685C11.458 27.9685 11.458 27.9685 11.458 27.9685C11.458 27.9685 11.458 27.9684 11.208 27.9667ZM10.9597 27.9325L10.9586 27.9503L11.4575 27.9831L11.4586 27.9653L10.9597 27.9325ZM10.9147 12.6907L10.9592 27.9496L11.4592 27.9481L11.4147 12.6893L10.9147 12.6907ZM12.5269 11.1805C11.6123 11.1805 10.9124 11.8543 10.9147 12.6907L11.4147 12.6893C11.4132 12.1561 11.8617 11.6805 12.5269 11.6805V11.1805ZM12.315 11.298L12.3145 11.2987L12.7394 11.5623L12.7398 11.5616L12.315 11.298ZM8.7613 40.5444H8.78902V40.0444H8.7613V40.5444ZM9.00811 40.1657C8.95612 40.076 8.87227 40.0524 8.8427 40.0462C8.80971 40.0393 8.78316 40.0408 8.77448 40.0414C8.75508 40.0427 8.7393 40.0462 8.73918 40.0463C8.73719 40.0467 8.73552 40.047 8.73491 40.0472C8.73347 40.0475 8.73445 40.0473 8.73377 40.0474C8.73373 40.0474 8.7347 40.0472 8.73611 40.0469C8.7431 40.0456 8.75191 40.0444 8.7613 40.0444V40.5444C8.79059 40.5444 8.81434 40.5411 8.83146 40.5378C8.83146 40.5378 8.85268 40.5334 8.83996 40.536C8.83876 40.5362 8.83555 40.5369 8.83131 40.5376C8.82764 40.5382 8.81897 40.5396 8.80776 40.5403C8.79945 40.5409 8.77319 40.5424 8.74042 40.5356C8.71107 40.5295 8.62736 40.5059 8.57545 40.4163L9.00811 40.1657ZM8.96727 40.4697C8.96797 40.469 8.96978 40.4672 8.97184 40.465C8.97355 40.4632 8.97807 40.4584 8.98334 40.4521C8.98639 40.4484 9.00105 40.431 9.01413 40.4056C9.0177 40.3986 9.07867 40.2879 9.00828 40.166L8.57528 40.416C8.53942 40.3539 8.53867 40.2927 8.54466 40.2535C8.55025 40.2168 8.56275 40.19 8.56931 40.1772C8.58221 40.1521 8.59655 40.1352 8.59913 40.1321C8.60658 40.1232 8.61368 40.1162 8.61077 40.1191L8.96727 40.4697ZM8.78902 40.5444H26.25V40.0444H8.78902V40.5444ZM8.9232 40.5315C8.94045 40.5033 8.95228 40.4874 8.9583 40.4798C8.96126 40.4761 8.96304 40.4741 8.96366 40.4734C8.96437 40.4727 8.96409 40.473 8.96721 40.4698L8.61082 40.1191C8.5916 40.1386 8.55212 40.1798 8.49642 40.271L8.9232 40.5315ZM8.7866 41.1301C8.7866 40.8534 8.86466 40.6274 8.9232 40.5315L8.49642 40.271C8.38323 40.4565 8.2866 40.7754 8.2866 41.1301H8.7866ZM8.7866 43.6454V41.1301H8.2866V43.6454H8.7866ZM8.9232 44.244C8.86466 44.1481 8.7866 43.9221 8.7866 43.6454H8.2866C8.2866 44.0001 8.38323 44.319 8.49641 44.5045L8.9232 44.244ZM8.96721 44.3057C8.96409 44.3025 8.96437 44.3028 8.96365 44.302C8.96304 44.3014 8.96126 44.2994 8.9583 44.2957C8.95228 44.2881 8.94045 44.2722 8.9232 44.244L8.49642 44.5045C8.55212 44.5957 8.5916 44.6369 8.61083 44.6564L8.96721 44.3057ZM8.78902 44.231H8.7613V44.731H8.78902V44.231ZM8.7613 44.731C8.75192 44.731 8.74311 44.7299 8.73611 44.7286C8.73471 44.7283 8.73373 44.7281 8.73377 44.7281C8.73445 44.7282 8.73348 44.728 8.73491 44.7283C8.73552 44.7285 8.73719 44.7288 8.73918 44.7292C8.7393 44.7293 8.75508 44.7328 8.77448 44.7341C8.78315 44.7346 8.80972 44.7362 8.84271 44.7293C8.87228 44.7231 8.95618 44.6995 9.00815 44.6097L8.57541 44.3592C8.62731 44.2696 8.71106 44.246 8.74041 44.2399C8.77318 44.233 8.79945 44.2346 8.80776 44.2352C8.81898 44.2359 8.82764 44.2373 8.83131 44.2379C8.83555 44.2386 8.83877 44.2393 8.83996 44.2395C8.85267 44.2421 8.83147 44.2377 8.83145 44.2377C8.81434 44.2344 8.79058 44.231 8.7613 44.231V44.731ZM9.00828 44.6095C9.07868 44.4876 9.0177 44.3769 9.01413 44.3699C9.00105 44.3444 8.98639 44.3271 8.98335 44.3234C8.97808 44.3171 8.97355 44.3123 8.97184 44.3105C8.96978 44.3083 8.96797 44.3065 8.96727 44.3058L8.61077 44.6563C8.61368 44.6593 8.60658 44.6523 8.59913 44.6434C8.59655 44.6403 8.58221 44.6234 8.56931 44.5983C8.56276 44.5855 8.55026 44.5587 8.54466 44.522C8.53867 44.4828 8.53942 44.4216 8.57528 44.3595L9.00828 44.6095ZM26.25 44.231H8.78902V44.731H26.25V44.231ZM26.0749 44.3026C26.0744 44.3031 26.0729 44.3046 26.0712 44.3063C26.0698 44.3077 26.0657 44.3118 26.0609 44.3172C26.0584 44.32 26.0442 44.3356 26.0309 44.3586C26.0243 44.3699 26.0103 44.3958 26.0026 44.432C25.9944 44.4702 25.99 44.5376 26.0292 44.6072L26.4648 44.3618C26.504 44.4313 26.4996 44.4986 26.4915 44.5367C26.4837 44.5728 26.4698 44.5985 26.4633 44.6097C26.4502 44.6323 26.4363 44.6475 26.4343 44.6497C26.4279 44.6569 26.4216 44.6629 26.4251 44.6595L26.0749 44.3026ZM26.0298 44.6083C26.0853 44.7056 26.1779 44.7262 26.2037 44.7308C26.2359 44.7365 26.2616 44.7343 26.2693 44.7337C26.28 44.7327 26.2885 44.7313 26.2922 44.7306C26.2965 44.7299 26.3 44.7291 26.3015 44.7288C26.3031 44.7285 26.3081 44.7274 26.3058 44.7279C26.3055 44.7279 26.3044 44.7282 26.3028 44.7285C26.2953 44.7299 26.2864 44.731 26.2771 44.731V44.231C26.2481 44.231 26.2244 44.2343 26.2069 44.2378C26.2025 44.2386 26.1893 44.2415 26.1968 44.2399C26.1977 44.2397 26.2006 44.2391 26.2044 44.2384C26.2076 44.2378 26.2156 44.2365 26.226 44.2355C26.2334 44.2349 26.2588 44.2328 26.2908 44.2384C26.3164 44.243 26.4088 44.2635 26.4642 44.3607L26.0298 44.6083ZM26.2771 44.231H26.25V44.731H26.2771V44.231ZM26.1164 44.244C26.0993 44.272 26.0876 44.2876 26.0818 44.2949C26.0789 44.2984 26.0773 44.3002 26.0769 44.3006C26.0767 44.3008 26.0769 44.3006 26.0749 44.3026L26.425 44.6595C26.447 44.638 26.4875 44.5958 26.5432 44.5045L26.1164 44.244ZM26.2518 43.6454C26.2518 43.9229 26.1746 44.1487 26.1164 44.244L26.5432 44.5045C26.6568 44.3184 26.7518 43.9993 26.7518 43.6454H26.2518ZM26.2518 41.1301V43.6454H26.7518V41.1301H26.2518ZM26.1164 40.5315C26.1746 40.6268 26.2518 40.8526 26.2518 41.1301H26.7518C26.7518 40.7762 26.6568 40.4571 26.5432 40.271L26.1164 40.5315ZM26.075 40.4729C26.0769 40.4749 26.0767 40.4747 26.0769 40.4749C26.0773 40.4753 26.0789 40.4771 26.0818 40.4806C26.0876 40.4878 26.0993 40.5034 26.1164 40.5315L26.5432 40.271C26.4875 40.1797 26.447 40.1375 26.425 40.1159L26.075 40.4729ZM26.25 40.5444H26.2771V40.0444H26.25V40.5444ZM26.2771 40.0444C26.2864 40.0444 26.2953 40.0456 26.3028 40.047C26.3044 40.0473 26.3055 40.0476 26.3058 40.0476C26.3081 40.0481 26.3031 40.047 26.3015 40.0467C26.3 40.0464 26.2965 40.0456 26.2922 40.0449C26.2885 40.0442 26.2801 40.0428 26.2693 40.0418C26.2616 40.0411 26.2359 40.039 26.2036 40.0447C26.1778 40.0493 26.085 40.07 26.0297 40.1675L26.4644 40.4145C26.4091 40.5119 26.3165 40.5325 26.2908 40.5371C26.2588 40.5427 26.2334 40.5406 26.226 40.5399C26.2156 40.539 26.2076 40.5377 26.2044 40.5371C26.2006 40.5364 26.1977 40.5358 26.1968 40.5356C26.1893 40.534 26.2025 40.5369 26.2069 40.5377C26.2244 40.5411 26.2481 40.5444 26.2771 40.5444V40.0444ZM26.0298 40.1672C25.9898 40.2375 25.9944 40.3056 26.0026 40.3437C26.0104 40.3799 26.0245 40.4058 26.031 40.4171C26.0443 40.4399 26.0584 40.4555 26.0609 40.4583C26.0657 40.4637 26.0698 40.4678 26.0712 40.4692C26.0729 40.4709 26.0745 40.4725 26.075 40.4729L26.425 40.1159C26.4216 40.1126 26.4279 40.1186 26.4344 40.1258C26.4363 40.1281 26.4501 40.1432 26.4632 40.1657C26.4697 40.1768 26.4837 40.2025 26.4914 40.2386C26.4996 40.2766 26.5042 40.3446 26.4642 40.4148L26.0298 40.1672Z" fill="#00A6E4"/>
</svg>
