<svg width="40" height="48" viewBox="0 0 40 48" fill="none" xmlns="http://www.w3.org/2000/svg">
<path fill-rule="evenodd" clip-rule="evenodd" d="M38.6501 7.9H32.0001V1.25C32.0001 0.7 31.5501 0.25 31.0001 0.25H1.3501C0.800098 0.25 0.350098 0.7 0.350098 1.25V39.1C0.350098 39.65 0.800098 40.1 1.3501 40.1H8.0001V46.75C8.0001 47.3 8.4501 47.75 9.0001 47.75H38.7001C39.2501 47.75 39.7001 47.3 39.7001 46.75V8.9C39.6501 8.35 39.2001 7.9 38.6501 7.9ZM8.0001 8.9V38.1H2.3001V2.25H30.0001V7.9H9.0001C8.4501 7.9 8.0001 8.35 8.0001 8.9ZM10.0001 45.75H37.7001V9.9H10.0001V45.75Z" fill="#00A6E4"/>
<path d="M16.1001 33.8C15.5501 33.8 15.1001 34.25 15.1001 34.8C15.1001 35.35 15.5501 35.8 16.1001 35.8H31.5501C32.1001 35.8 32.5501 35.35 32.5501 34.8C32.5501 34.25 32.1001 33.8 31.5501 33.8H16.1001Z" fill="#00A6E4"/>
<path d="M31.5501 39.35H16.1001C15.5501 39.35 15.1001 39.8 15.1001 40.35C15.1001 40.9 15.5501 41.35 16.1001 41.35H31.5501C32.1001 41.35 32.5501 40.9 32.5501 40.35C32.5501 39.8 32.1001 39.35 31.5501 39.35Z" fill="#00A6E4"/>
<path fill-rule="evenodd" clip-rule="evenodd" d="M22.8498 16.55C21.2498 16.85 19.8498 17.75 18.9998 19.05C18.6498 18.75 18.2498 18.6 17.8998 18.55H17.0498C18.3498 16.1 20.9498 14.45 23.8998 14.45C28.1998 14.45 31.6998 17.95 31.6998 22.25C31.6998 26.55 28.1998 30.05 23.8998 30.05C22.8498 30.05 21.8498 29.85 20.8998 29.45C21.3498 28.95 21.5998 28.3 21.7498 27.65C22.3998 27.9 23.0998 28.05 23.8498 28.05C26.6998 28.05 29.0498 26 29.5498 23.25H23.8498C23.2998 23.25 22.8498 22.8 22.8498 22.25V16.55ZM24.8498 21.25H29.5498C29.0998 18.85 27.2498 16.95 24.8498 16.55V21.25Z" fill="#00A6E4"/>
<path d="M16.5502 29.35V30.05C16.5502 30.25 16.7002 30.4 16.9002 30.4H17.7502C17.9502 30.4 18.1002 30.25 18.1002 30.05V29.35C18.7502 29.25 19.2502 28.95 19.6502 28.55C20.0502 28.1 20.3002 27.55 20.3002 26.85C20.3002 26.65 20.3002 26.5 20.2502 26.35C20.2002 26.2 20.2002 26.05 20.1502 25.9C20.1002 25.75 20.0502 25.65 19.9502 25.5C19.8502 25.4 19.8002 25.3 19.7002 25.2C19.6002 25.1 19.5002 25.05 19.3502 24.95C19.2002 24.85 19.1002 24.8 19.0002 24.75C18.9002 24.7 18.7502 24.65 18.5502 24.55C18.4002 24.5 18.2502 24.45 18.1002 24.4C17.9502 24.35 17.8002 24.3 17.6002 24.25C17.1502 24.1 16.8502 24 16.7002 23.85C16.5502 23.75 16.5002 23.65 16.5002 23.5C16.5002 23.35 16.5502 23.25 16.6502 23.15C16.8002 23.05 17.0002 23 17.2502 23C17.7502 23 18.3002 23.2 18.8502 23.55C19.0002 23.65 19.2002 23.6 19.3002 23.5L20.0002 22.6C20.0502 22.55 20.1002 22.45 20.0502 22.35C20.0502 22.25 20.0002 22.15 19.9002 22.1C19.6502 21.9 19.4002 21.75 19.1002 21.6C18.8002 21.45 18.4502 21.35 18.1002 21.25V20.4C18.1002 20.2 17.9502 20.05 17.7502 20.05H16.9002C16.7002 20.05 16.5502 20.2 16.5502 20.4V21.2C15.9002 21.3 15.4002 21.55 15.0002 21.95C14.6002 22.4 14.3502 22.95 14.3502 23.6C14.3502 23.75 14.3502 23.9 14.4002 24.05C14.4002 24.2 14.4502 24.35 14.5002 24.45C14.5502 24.55 14.6002 24.7 14.6502 24.8C14.7002 24.9 14.8002 25 14.9002 25.1C15.0002 25.2 15.1002 25.25 15.1502 25.35C15.2502 25.45 15.3502 25.5 15.5002 25.55C15.6002 25.6 15.7502 25.65 15.8502 25.7C15.9502 25.75 16.1002 25.8 16.2502 25.85C16.4002 25.9 16.5002 25.95 16.6502 26C16.7502 26.05 16.9002 26.1 17.0502 26.1C17.2002 26.15 17.3502 26.2 17.4502 26.25C17.5502 26.3 17.6502 26.35 17.7502 26.4C17.8502 26.45 17.9002 26.5 18.0002 26.55C18.0502 26.6 18.1002 26.65 18.1502 26.7C18.2002 26.75 18.2002 26.8 18.2002 26.85C18.2002 26.9 18.2002 26.95 18.2002 27.05C18.2002 27.2 18.1502 27.35 18.0002 27.45C17.7002 27.7 17.0502 27.65 16.4002 27.4C16.1002 27.3 15.8002 27.1 15.5502 26.85C15.5002 26.8 15.4002 26.75 15.3002 26.75C15.2002 26.75 15.1002 26.8 15.0502 26.9L14.3002 27.8C14.2002 27.95 14.2002 28.15 14.3502 28.3C15.0002 28.8 15.7502 29.2 16.5502 29.35Z" fill="#00A6E4"/>
</svg>
