<svg width="42" height="41" viewBox="0 0 42 41" fill="none" xmlns="http://www.w3.org/2000/svg">
<path fill-rule="evenodd" clip-rule="evenodd" d="M35.1496 24.3903C39.6175 19.4349 40.1578 12.1026 36.464 6.55198C32.7702 1.00133 25.7745 -1.36684 19.4446 0.790595C13.1147 2.94803 9.04811 9.08658 9.55121 15.7247C10.0543 22.3629 15.0001 27.8253 21.5836 29.014C22.4609 29.1732 23.3507 29.2538 24.2424 29.2548C26.0637 29.2556 27.869 28.9156 29.5641 28.2527L32.6205 35.1345C33.2117 36.4665 34.3711 37.4654 35.7807 37.8571C35.9321 37.9001 36.0834 37.9345 36.239 37.9603C36.5244 38.0113 36.8137 38.0372 37.1036 38.0377C39.0959 38.0317 40.887 36.8288 41.6377 34.9927C42.3884 33.1567 41.9498 31.0514 40.5275 29.6634L35.1496 24.3903ZM21.9684 26.9064C16.968 26.0162 13.0017 22.2118 11.9248 17.2727C10.8478 12.3335 12.8729 7.23599 17.053 4.36421C19.1431 2.91448 21.6296 2.1369 24.1775 2.13622C24.9372 2.136 25.6953 2.20366 26.4428 2.33837C33.2618 3.56767 37.788 10.064 36.5524 16.8482C35.3168 23.6325 28.7874 28.1357 21.9684 26.9064ZM38.7881 35.3126C39.406 34.8452 39.7974 34.1403 39.8661 33.371C39.9342 32.553 39.6295 31.7477 39.036 31.1774L33.5976 25.8612C33.2719 26.1336 32.9318 26.3917 32.5773 26.6354C32.2257 26.8763 31.8669 27.1014 31.5009 27.3107L34.5832 34.2355C34.9153 34.9848 35.5673 35.5466 36.36 35.7667L36.6194 35.827C37.3829 35.9668 38.1702 35.78 38.7881 35.3126Z" fill="#00A6E4"/>
<path fill-rule="evenodd" clip-rule="evenodd" d="M9.93682 40.4151C9.65083 40.415 9.3766 40.3032 9.17445 40.1045L0.316211 31.4157C0.113901 31.2172 0.000159869 30.9478 0 30.6668V6.9408C0 5.29581 1.35754 3.96228 3.03216 3.96228H7.70169C8.29977 3.96228 8.7846 4.43854 8.7846 5.02604C8.7846 5.61353 8.29977 6.08979 7.70169 6.08979H3.03216C2.5537 6.08979 2.16583 6.4708 2.16583 6.9408V29.1052H8.99252C10.3886 29.1076 11.5198 30.2188 11.5222 31.5902V38.2748H25.4961C25.9746 38.2748 26.3625 37.8938 26.3625 37.4238V33.2709C26.3625 32.6834 26.8473 32.2072 27.4454 32.2072C28.0435 32.2072 28.5283 32.6834 28.5283 33.2709V37.4366C28.5283 39.0816 27.1708 40.4151 25.4961 40.4151H9.93682ZM9.37371 37.3047V31.5944L9.36938 31.5902C9.36938 31.3857 9.20065 31.22 8.99252 31.22H3.17511L9.37371 37.3047Z" fill="#00A6E4"/>
<path d="M33.2704 15.2696V11.3728C33.2704 10.7814 32.7998 10.3019 32.2193 10.3019H28.399C27.8161 10.3019 27.3437 10.7833 27.3437 11.3771C27.3437 11.971 27.8161 12.4524 28.399 12.4524H29.6654L25.9337 16.2674L22.6326 12.904C22.2222 12.4862 21.5571 12.4862 21.1467 12.904L16.1782 17.9621C15.9002 18.2298 15.7869 18.6304 15.8825 19.0078C15.978 19.3852 16.2673 19.68 16.6377 19.7773C17.0082 19.8747 17.4013 19.7593 17.6641 19.476L21.8855 15.175L25.1865 18.5384C25.597 18.9562 26.262 18.9562 26.6725 18.5384L31.1724 13.9578V15.2481C31.1724 15.8419 31.6449 16.3234 32.2277 16.3234C32.8106 16.3234 33.2831 15.8419 33.2831 15.2481L33.2704 15.2696Z" fill="#00A6E4"/>
</svg>
