<svg width="271" height="44" viewBox="0 0 271 44" fill="none" xmlns="http://www.w3.org/2000/svg">
<path fill-rule="evenodd" clip-rule="evenodd" d="M196.302 34.1596V17.4742H200.853V14.1877H196.344V9.59499C196.344 8.89275 196.38 8.26775 196.45 7.71999C196.52 7.17224 196.675 6.70173 196.913 6.30848C197.152 5.91522 197.482 5.61325 197.903 5.40258C198.325 5.1919 198.887 5.08657 199.589 5.08657C199.982 5.08657 200.347 5.11466 200.684 5.17084C201.021 5.22702 201.373 5.32533 201.738 5.46578L202.159 2.09499C201.625 1.95454 201.127 1.87027 200.663 1.84218C200.2 1.81409 199.757 1.80005 199.336 1.80005C196.836 1.80005 195.073 2.45314 194.048 3.75932C193.023 5.0655 192.51 7.05286 192.51 9.7214V14.1877H188.212V17.4742H192.51V34.1596H196.302ZM164.364 34.6652C165.712 34.6652 167.026 34.3703 168.304 33.7804C169.582 33.1905 170.586 32.3618 171.316 31.2944H171.401V34.1596H175.193V2.30567H171.401V17.0529H171.316C170.642 16.0135 169.673 15.1919 168.409 14.588C167.145 13.984 165.797 13.6821 164.364 13.6821C162.819 13.6821 161.422 13.9489 160.172 14.4826C158.922 15.0163 157.854 15.7537 156.969 16.6947C156.085 17.6357 155.403 18.7453 154.926 20.0234C154.448 21.3015 154.21 22.6849 154.21 24.1736C154.21 25.6624 154.448 27.0388 154.926 28.3029C155.403 29.5669 156.085 30.6765 156.969 31.6315C157.854 32.5866 158.922 33.3309 160.172 33.8647C161.422 34.3984 162.819 34.6652 164.364 34.6652ZM106.239 34.2649C104.933 34.7003 103.423 34.918 101.71 34.918C99.3501 34.918 97.2223 34.4686 95.3262 33.5697C93.4301 32.6708 91.815 31.4911 90.4807 30.0304C89.1464 28.5697 88.1282 26.9194 87.4259 25.0795C86.7237 23.2397 86.3726 21.3787 86.3726 19.4967C86.3726 17.1933 86.7518 15.0655 87.5102 13.1133C88.2686 11.161 89.329 9.47561 90.6914 8.05707C92.0537 6.63853 93.69 5.536 95.6001 4.74949C97.5102 3.96297 99.6169 3.56971 101.92 3.56971C103.887 3.56971 105.818 3.94893 107.714 4.70735C109.61 5.46578 111.162 6.63151 112.37 8.20454L108.999 10.7748C108.156 9.67926 107.089 8.83657 105.797 8.24668C104.505 7.65679 103.17 7.36185 101.794 7.36185C100.109 7.36185 98.5846 7.67786 97.2223 8.30988C95.8599 8.9419 94.6942 9.80567 93.7251 10.9012C92.756 11.9967 92.0046 13.2818 91.4709 14.7565C90.9372 16.2312 90.6703 17.8113 90.6703 19.4967C90.6703 21.0697 90.9231 22.5585 91.4287 23.963C91.9344 25.3675 92.6647 26.6034 93.6197 27.6708C94.5748 28.7383 95.7405 29.5809 97.1169 30.1989C98.4933 30.8169 100.052 31.1259 101.794 31.1259C103.507 31.1259 105.01 30.7748 106.302 30.0725C107.594 29.3703 108.69 28.3871 109.589 27.1231L113.002 29.6933C112.777 30.0023 112.384 30.4447 111.822 31.0206C111.26 31.5964 110.516 32.1722 109.589 32.7481C108.662 33.3239 107.545 33.8295 106.239 34.2649ZM120.712 24.1315V34.1596H116.92V14.1877H120.712V17.2635H120.797C121.05 16.7298 121.387 16.2453 121.808 15.8099C122.229 15.3745 122.7 15.0023 123.219 14.6933C123.739 14.3843 124.308 14.1385 124.926 13.9559C125.544 13.7734 126.162 13.6821 126.78 13.6821C127.398 13.6821 127.96 13.7663 128.465 13.9349L128.297 18.022C127.988 17.9377 127.679 17.8675 127.37 17.8113C127.061 17.7551 126.752 17.727 126.443 17.727C124.589 17.727 123.17 18.2467 122.187 19.286C121.204 20.3253 120.712 21.9405 120.712 24.1315ZM140.853 34.6652C144.645 34.6652 147.594 33.3029 149.701 30.5781L146.836 28.3871C146.106 29.286 145.305 30.0093 144.434 30.5571C143.564 31.1048 142.538 31.3787 141.359 31.3787C140.488 31.3787 139.645 31.2383 138.83 30.9574C138.016 30.6765 137.3 30.2832 136.682 29.7776C136.064 29.272 135.565 28.661 135.186 27.9447C134.807 27.2284 134.617 26.4349 134.617 25.5641H150.628V24.2158C150.628 22.9236 150.453 21.6526 150.101 20.4026C149.75 19.1526 149.182 18.029 148.395 17.0318C147.609 16.0346 146.604 15.227 145.382 14.609C144.16 13.9911 142.665 13.6821 140.895 13.6821C139.406 13.6821 138.03 13.9489 136.766 14.4826C135.502 15.0163 134.413 15.7537 133.5 16.6947C132.587 17.6357 131.871 18.7453 131.351 20.0234C130.832 21.3015 130.572 22.6849 130.572 24.1736C130.572 25.6624 130.811 27.0458 131.288 28.3239C131.766 29.602 132.447 30.7116 133.332 31.6526C134.217 32.5936 135.298 33.3309 136.576 33.8647C137.854 34.3984 139.28 34.6652 140.853 34.6652ZM134.617 22.5304H146.583C146.555 21.6877 146.422 20.9152 146.183 20.213C145.944 19.5107 145.586 18.8998 145.109 18.3801C144.631 17.8604 144.034 17.4531 143.318 17.1582C142.601 16.8633 141.766 16.7158 140.811 16.7158C139.884 16.7158 139.034 16.8913 138.262 17.2425C137.489 17.5936 136.836 18.05 136.302 18.6118C135.769 19.1736 135.354 19.7986 135.059 20.4868C134.764 21.175 134.617 21.8562 134.617 22.5304ZM162.089 30.5992C162.903 30.9503 163.816 31.1259 164.828 31.1259C165.839 31.1259 166.752 30.9503 167.566 30.5992C168.381 30.2481 169.069 29.7706 169.631 29.1666C170.193 28.5627 170.628 27.8324 170.937 26.9756C171.246 26.1189 171.401 25.1849 171.401 24.1736C171.401 23.1624 171.246 22.2284 170.937 21.3717C170.628 20.5149 170.193 19.7846 169.631 19.1807C169.069 18.5767 168.381 18.0992 167.566 17.7481C166.752 17.397 165.839 17.2214 164.828 17.2214C163.816 17.2214 162.903 17.397 162.089 17.7481C161.274 18.0992 160.586 18.5767 160.024 19.1807C159.462 19.7846 159.027 20.5149 158.718 21.3717C158.409 22.2284 158.255 23.1624 158.255 24.1736C158.255 25.1849 158.409 26.1189 158.718 26.9756C159.027 27.8324 159.462 28.5627 160.024 29.1666C160.586 29.7706 161.274 30.2481 162.089 30.5992ZM183.114 9.80567C183.873 9.80567 184.526 9.53179 185.073 8.98404C185.621 8.43629 185.895 7.7832 185.895 7.02477C185.895 6.26634 185.621 5.61325 185.073 5.0655C184.526 4.51775 183.873 4.24387 183.114 4.24387C182.356 4.24387 181.703 4.51775 181.155 5.0655C180.607 5.61325 180.333 6.26634 180.333 7.02477C180.333 7.7832 180.607 8.43629 181.155 8.98404C181.703 9.53179 182.356 9.80567 183.114 9.80567ZM181.218 14.1877H185.01V34.1596H181.218V14.1877ZM218.887 33.8436C217.594 34.3913 216.204 34.6652 214.715 34.6652C213.226 34.6652 211.836 34.3913 210.544 33.8436C209.252 33.2958 208.128 32.5515 207.173 31.6104C206.218 30.6694 205.467 29.5599 204.919 28.2818C204.371 27.0037 204.097 25.6343 204.097 24.1736C204.097 22.713 204.371 21.3506 204.919 20.0866C205.467 18.8225 206.218 17.713 207.173 16.7579C208.128 15.8029 209.252 15.0515 210.544 14.5037C211.836 13.9559 213.226 13.6821 214.715 13.6821C216.204 13.6821 217.594 13.9559 218.887 14.5037C220.179 15.0515 221.302 15.8029 222.257 16.7579C223.212 17.713 223.964 18.8225 224.512 20.0866C225.059 21.3506 225.333 22.713 225.333 24.1736C225.333 25.6343 225.059 27.0037 224.512 28.2818C223.964 29.5599 223.212 30.6694 222.257 31.6104C221.302 32.5515 220.179 33.2958 218.887 33.8436ZM214.715 31.1259C213.704 31.1259 212.791 30.9503 211.976 30.5992C211.162 30.2481 210.474 29.7706 209.912 29.1666C209.35 28.5627 208.915 27.8324 208.606 26.9756C208.297 26.1189 208.142 25.1849 208.142 24.1736C208.142 23.1624 208.297 22.2284 208.606 21.3717C208.915 20.5149 209.35 19.7846 209.912 19.1807C210.474 18.5767 211.162 18.0992 211.976 17.7481C212.791 17.397 213.704 17.2214 214.715 17.2214C215.726 17.2214 216.639 17.397 217.454 17.7481C218.269 18.0992 218.957 18.5767 219.519 19.1807C220.08 19.7846 220.516 20.5149 220.825 21.3717C221.134 22.2284 221.288 23.1624 221.288 24.1736C221.288 25.1849 221.134 26.1189 220.825 26.9756C220.516 27.8324 220.08 28.5627 219.519 29.1666C218.957 29.7706 218.269 30.2481 217.454 30.5992C216.639 30.9503 215.726 31.1259 214.715 31.1259ZM234.182 2.30567V34.1596H230.389V2.30567H234.182ZM242.398 9.80567C243.156 9.80567 243.809 9.53179 244.357 8.98404C244.905 8.43629 245.179 7.7832 245.179 7.02477C245.179 6.26634 244.905 5.61325 244.357 5.0655C243.809 4.51775 243.156 4.24387 242.398 4.24387C241.639 4.24387 240.986 4.51775 240.439 5.0655C239.891 5.61325 239.617 6.26634 239.617 7.02477C239.617 7.7832 239.891 8.43629 240.439 8.98404C240.986 9.53179 241.639 9.80567 242.398 9.80567ZM240.502 14.1877H244.294V34.1596H240.502V14.1877ZM259.968 34.6652C261.457 34.6652 262.847 34.3913 264.139 33.8436C265.432 33.2958 266.555 32.5515 267.51 31.6104C268.465 30.6694 269.217 29.5599 269.764 28.2818C270.312 27.0037 270.586 25.6343 270.586 24.1736C270.586 22.713 270.312 21.3506 269.764 20.0866C269.217 18.8225 268.465 17.713 267.51 16.7579C266.555 15.8029 265.432 15.0515 264.139 14.5037C262.847 13.9559 261.457 13.6821 259.968 13.6821C258.479 13.6821 257.089 13.9559 255.797 14.5037C254.505 15.0515 253.381 15.8029 252.426 16.7579C251.471 17.713 250.719 18.8225 250.172 20.0866C249.624 21.3506 249.35 22.713 249.35 24.1736C249.35 25.6343 249.624 27.0037 250.172 28.2818C250.719 29.5599 251.471 30.6694 252.426 31.6104C253.381 32.5515 254.505 33.2958 255.797 33.8436C257.089 34.3913 258.479 34.6652 259.968 34.6652ZM257.229 30.5992C258.044 30.9503 258.957 31.1259 259.968 31.1259C260.979 31.1259 261.892 30.9503 262.707 30.5992C263.521 30.2481 264.21 29.7706 264.771 29.1666C265.333 28.5627 265.769 27.8324 266.078 26.9756C266.387 26.1189 266.541 25.1849 266.541 24.1736C266.541 23.1624 266.387 22.2284 266.078 21.3717C265.769 20.5149 265.333 19.7846 264.771 19.1807C264.21 18.5767 263.521 18.0992 262.707 17.7481C261.892 17.397 260.979 17.2214 259.968 17.2214C258.957 17.2214 258.044 17.397 257.229 17.7481C256.415 18.0992 255.727 18.5767 255.165 19.1807C254.603 19.7846 254.168 20.5149 253.859 21.3717C253.55 22.2284 253.395 23.1624 253.395 24.1736C253.395 25.1849 253.55 26.1189 253.859 26.9756C254.168 27.8324 254.603 28.5627 255.165 29.1666C255.727 29.7706 256.415 30.2481 257.229 30.5992Z" fill="white"/>
<path d="M29.667 38.8286L43.3987 15.6587H62.233L48.5013 38.8286H29.667Z" fill="#58C5ED"/>
<path d="M62.2332 15.6588L53.9958 0.490234L43.3989 15.6588H62.2332Z" fill="#97DBF4"/>
<path d="M21.0382 43.0422L0.0170898 23.5464L2.20389 43.0422H21.0382Z" fill="#D0DEE7"/>
<path d="M34.7696 11.8665L21.0379 43.042H2.20361L15.9354 11.8665H34.7696Z" fill="#E6EDF2"/>
<path d="M15.9355 11.8665L29.6673 38.8285H48.5016L34.7698 11.8665H15.9355Z" fill="#00A6E4"/>
</svg>
