<svg width="271" height="44" viewBox="0 0 271 44" fill="none" xmlns="http://www.w3.org/2000/svg">
<path fill-rule="evenodd" clip-rule="evenodd" d="M196.302 34.1595V17.4741H200.853V14.1876H196.344V9.59487C196.344 8.89262 196.38 8.26762 196.45 7.71987C196.52 7.17212 196.675 6.70161 196.913 6.30835C197.152 5.9151 197.482 5.61313 197.903 5.40245C198.325 5.19178 198.887 5.08644 199.589 5.08644C199.982 5.08644 200.347 5.11453 200.684 5.17071C201.021 5.22689 201.373 5.32521 201.738 5.46566L202.159 2.09487C201.625 1.95442 201.127 1.87015 200.663 1.84206C200.2 1.81397 199.757 1.79993 199.336 1.79993C196.836 1.79993 195.073 2.45302 194.048 3.7592C193.023 5.06538 192.51 7.05274 192.51 9.72127V14.1876H188.212V17.4741H192.51V34.1595H196.302ZM164.364 34.6651C165.712 34.6651 167.026 34.3702 168.304 33.7803C169.582 33.1904 170.586 32.3617 171.316 31.2943H171.401V34.1595H175.193V2.30554H171.401V17.0527H171.316C170.642 16.0134 169.673 15.1918 168.409 14.5878C167.145 13.9839 165.797 13.6819 164.364 13.6819C162.819 13.6819 161.422 13.9488 160.172 14.4825C158.922 15.0162 157.854 15.7536 156.969 16.6946C156.085 17.6356 155.403 18.7452 154.926 20.0232C154.448 21.3013 154.21 22.6848 154.21 24.1735C154.21 25.6623 154.448 27.0387 154.926 28.3027C155.403 29.5668 156.085 30.6763 156.969 31.6314C157.854 32.5864 158.922 33.3308 160.172 33.8645C161.422 34.3982 162.819 34.6651 164.364 34.6651ZM106.239 34.2648C104.933 34.7002 103.423 34.9179 101.71 34.9179C99.3501 34.9179 97.2223 34.4685 95.3262 33.5696C93.4301 32.6707 91.815 31.4909 90.4807 30.0303C89.1464 28.5696 88.1282 26.9193 87.4259 25.0794C86.7237 23.2395 86.3726 21.3786 86.3726 19.4966C86.3726 17.1932 86.7518 15.0654 87.5102 13.1131C88.2686 11.1609 89.329 9.47549 90.6914 8.05695C92.0537 6.63841 93.69 5.53588 95.6001 4.74936C97.5102 3.96285 99.6169 3.56959 101.92 3.56959C103.887 3.56959 105.818 3.9488 107.714 4.70723C109.61 5.46566 111.162 6.63139 112.37 8.20442L108.999 10.7746C108.156 9.67914 107.089 8.83644 105.797 8.24656C104.505 7.65667 103.17 7.36172 101.794 7.36172C100.109 7.36172 98.5846 7.67774 97.2223 8.30976C95.8599 8.94178 94.6942 9.80554 93.7251 10.9011C92.756 11.9966 92.0046 13.2817 91.4709 14.7564C90.9372 16.2311 90.6703 17.8112 90.6703 19.4966C90.6703 21.0696 90.9231 22.5584 91.4287 23.9628C91.9344 25.3673 92.6647 26.6033 93.6197 27.6707C94.5748 28.7381 95.7405 29.5808 97.1169 30.1988C98.4933 30.8168 100.052 31.1258 101.794 31.1258C103.507 31.1258 105.01 30.7746 106.302 30.0724C107.594 29.3702 108.69 28.387 109.589 27.123L113.002 29.6932C112.777 30.0022 112.384 30.4446 111.822 31.0204C111.26 31.5963 110.516 32.1721 109.589 32.748C108.662 33.3238 107.545 33.8294 106.239 34.2648ZM120.712 24.1314V34.1595H116.92V14.1876H120.712V17.2634H120.797C121.05 16.7297 121.387 16.2452 121.808 15.8098C122.229 15.3744 122.7 15.0022 123.219 14.6932C123.739 14.3842 124.308 14.1384 124.926 13.9558C125.544 13.7732 126.162 13.6819 126.78 13.6819C127.398 13.6819 127.96 13.7662 128.465 13.9348L128.297 18.0218C127.988 17.9376 127.679 17.8673 127.37 17.8112C127.061 17.755 126.752 17.7269 126.443 17.7269C124.589 17.7269 123.17 18.2466 122.187 19.2859C121.204 20.3252 120.712 21.9404 120.712 24.1314ZM140.853 34.6651C144.645 34.6651 147.594 33.3027 149.701 30.578L146.836 28.387C146.106 29.2859 145.305 30.0092 144.434 30.5569C143.564 31.1047 142.538 31.3786 141.359 31.3786C140.488 31.3786 139.645 31.2381 138.83 30.9572C138.016 30.6763 137.3 30.2831 136.682 29.7775C136.064 29.2718 135.565 28.6609 135.186 27.9446C134.807 27.2283 134.617 26.4348 134.617 25.564H150.628V24.2157C150.628 22.9235 150.453 21.6525 150.101 20.4025C149.75 19.1525 149.182 18.0289 148.395 17.0317C147.609 16.0345 146.604 15.2269 145.382 14.6089C144.16 13.9909 142.665 13.6819 140.895 13.6819C139.406 13.6819 138.03 13.9488 136.766 14.4825C135.502 15.0162 134.413 15.7536 133.5 16.6946C132.587 17.6356 131.871 18.7452 131.351 20.0232C130.832 21.3013 130.572 22.6848 130.572 24.1735C130.572 25.6623 130.811 27.0457 131.288 28.3238C131.766 29.6019 132.447 30.7114 133.332 31.6525C134.217 32.5935 135.298 33.3308 136.576 33.8645C137.854 34.3982 139.28 34.6651 140.853 34.6651ZM134.617 22.5303H146.583C146.555 21.6876 146.422 20.9151 146.183 20.2128C145.944 19.5106 145.586 18.8996 145.109 18.38C144.631 17.8603 144.034 17.453 143.318 17.1581C142.601 16.8631 141.766 16.7157 140.811 16.7157C139.884 16.7157 139.034 16.8912 138.262 17.2423C137.489 17.5935 136.836 18.0499 136.302 18.6117C135.769 19.1735 135.354 19.7985 135.059 20.4867C134.764 21.1749 134.617 21.8561 134.617 22.5303ZM162.089 30.5991C162.903 30.9502 163.816 31.1258 164.828 31.1258C165.839 31.1258 166.752 30.9502 167.566 30.5991C168.381 30.248 169.069 29.7704 169.631 29.1665C170.193 28.5626 170.628 27.8322 170.937 26.9755C171.246 26.1187 171.401 25.1848 171.401 24.1735C171.401 23.1623 171.246 22.2283 170.937 21.3716C170.628 20.5148 170.193 19.7845 169.631 19.1805C169.069 18.5766 168.381 18.0991 167.566 17.748C166.752 17.3968 165.839 17.2213 164.828 17.2213C163.816 17.2213 162.903 17.3968 162.089 17.748C161.274 18.0991 160.586 18.5766 160.024 19.1805C159.462 19.7845 159.027 20.5148 158.718 21.3716C158.409 22.2283 158.255 23.1623 158.255 24.1735C158.255 25.1848 158.409 26.1187 158.718 26.9755C159.027 27.8322 159.462 28.5626 160.024 29.1665C160.586 29.7704 161.274 30.248 162.089 30.5991ZM183.114 9.80554C183.873 9.80554 184.526 9.53167 185.073 8.98392C185.621 8.43616 185.895 7.78307 185.895 7.02465C185.895 6.26622 185.621 5.61313 185.073 5.06538C184.526 4.51762 183.873 4.24375 183.114 4.24375C182.356 4.24375 181.703 4.51762 181.155 5.06538C180.607 5.61313 180.333 6.26622 180.333 7.02465C180.333 7.78307 180.607 8.43616 181.155 8.98392C181.703 9.53167 182.356 9.80554 183.114 9.80554ZM181.218 14.1876H185.01V34.1595H181.218V14.1876ZM218.887 33.8435C217.594 34.3912 216.204 34.6651 214.715 34.6651C213.226 34.6651 211.836 34.3912 210.544 33.8435C209.252 33.2957 208.128 32.5513 207.173 31.6103C206.218 30.6693 205.467 29.5598 204.919 28.2817C204.371 27.0036 204.097 25.6342 204.097 24.1735C204.097 22.7128 204.371 21.3505 204.919 20.0864C205.467 18.8224 206.218 17.7128 207.173 16.7578C208.128 15.8027 209.252 15.0513 210.544 14.5036C211.836 13.9558 213.226 13.6819 214.715 13.6819C216.204 13.6819 217.594 13.9558 218.887 14.5036C220.179 15.0513 221.302 15.8027 222.257 16.7578C223.212 17.7128 223.964 18.8224 224.512 20.0864C225.059 21.3505 225.333 22.7128 225.333 24.1735C225.333 25.6342 225.059 27.0036 224.512 28.2817C223.964 29.5598 223.212 30.6693 222.257 31.6103C221.302 32.5513 220.179 33.2957 218.887 33.8435ZM214.715 31.1258C213.704 31.1258 212.791 30.9502 211.976 30.5991C211.162 30.248 210.474 29.7704 209.912 29.1665C209.35 28.5626 208.915 27.8322 208.606 26.9755C208.297 26.1187 208.142 25.1848 208.142 24.1735C208.142 23.1623 208.297 22.2283 208.606 21.3716C208.915 20.5148 209.35 19.7845 209.912 19.1805C210.474 18.5766 211.162 18.0991 211.976 17.748C212.791 17.3968 213.704 17.2213 214.715 17.2213C215.726 17.2213 216.639 17.3968 217.454 17.748C218.269 18.0991 218.957 18.5766 219.519 19.1805C220.08 19.7845 220.516 20.5148 220.825 21.3716C221.134 22.2283 221.288 23.1623 221.288 24.1735C221.288 25.1848 221.134 26.1187 220.825 26.9755C220.516 27.8322 220.08 28.5626 219.519 29.1665C218.957 29.7704 218.269 30.248 217.454 30.5991C216.639 30.9502 215.726 31.1258 214.715 31.1258ZM234.182 2.30554V34.1595H230.389V2.30554H234.182ZM242.398 9.80554C243.156 9.80554 243.809 9.53167 244.357 8.98392C244.905 8.43616 245.179 7.78307 245.179 7.02465C245.179 6.26622 244.905 5.61313 244.357 5.06538C243.809 4.51762 243.156 4.24375 242.398 4.24375C241.639 4.24375 240.986 4.51762 240.439 5.06538C239.891 5.61313 239.617 6.26622 239.617 7.02465C239.617 7.78307 239.891 8.43616 240.439 8.98392C240.986 9.53167 241.639 9.80554 242.398 9.80554ZM240.502 14.1876H244.294V34.1595H240.502V14.1876ZM259.968 34.6651C261.457 34.6651 262.847 34.3912 264.139 33.8435C265.432 33.2957 266.555 32.5513 267.51 31.6103C268.465 30.6693 269.217 29.5598 269.764 28.2817C270.312 27.0036 270.586 25.6342 270.586 24.1735C270.586 22.7128 270.312 21.3505 269.764 20.0864C269.217 18.8224 268.465 17.7128 267.51 16.7578C266.555 15.8027 265.432 15.0513 264.139 14.5036C262.847 13.9558 261.457 13.6819 259.968 13.6819C258.479 13.6819 257.089 13.9558 255.797 14.5036C254.505 15.0513 253.381 15.8027 252.426 16.7578C251.471 17.7128 250.719 18.8224 250.172 20.0864C249.624 21.3505 249.35 22.7128 249.35 24.1735C249.35 25.6342 249.624 27.0036 250.172 28.2817C250.719 29.5598 251.471 30.6693 252.426 31.6103C253.381 32.5513 254.505 33.2957 255.797 33.8435C257.089 34.3912 258.479 34.6651 259.968 34.6651ZM257.229 30.5991C258.044 30.9502 258.957 31.1258 259.968 31.1258C260.979 31.1258 261.892 30.9502 262.707 30.5991C263.521 30.248 264.21 29.7704 264.771 29.1665C265.333 28.5626 265.769 27.8322 266.078 26.9755C266.387 26.1187 266.541 25.1848 266.541 24.1735C266.541 23.1623 266.387 22.2283 266.078 21.3716C265.769 20.5148 265.333 19.7845 264.771 19.1805C264.21 18.5766 263.521 18.0991 262.707 17.748C261.892 17.3968 260.979 17.2213 259.968 17.2213C258.957 17.2213 258.044 17.3968 257.229 17.748C256.415 18.0991 255.727 18.5766 255.165 19.1805C254.603 19.7845 254.168 20.5148 253.859 21.3716C253.55 22.2283 253.395 23.1623 253.395 24.1735C253.395 25.1848 253.55 26.1187 253.859 26.9755C254.168 27.8322 254.603 28.5626 255.165 29.1665C255.727 29.7704 256.415 30.248 257.229 30.5991Z" fill="#154061"/>
<path d="M29.667 38.8287L43.3987 15.6587H62.233L48.5013 38.8287H29.667Z" fill="#58C5ED"/>
<path d="M62.2332 15.6587L53.9958 0.490166L43.3989 15.6587H62.2332Z" fill="#97DBF4"/>
<path d="M21.0382 43.0421L0.0170898 23.5463L2.20389 43.0421H21.0382Z" fill="#D0DEE7"/>
<path d="M34.7696 11.8666L21.0379 43.0421H2.20361L15.9354 11.8666H34.7696Z" fill="#E6EDF2"/>
<path d="M15.9355 11.8666L29.6673 38.8287H48.5016L34.7698 11.8666H15.9355Z" fill="#00A6E4"/>
</svg>
